G04 ================== begin FILE IDENTIFICATION RECORD ==================*
G04 Layout Name:  E:/ORCAD_sch/Other/TEST-UM_01v1/pcb/test-um_01v1.brd*
G04 Film Name:    BOTTOM*
G04 File Format:  Gerber RS274X*
G04 File Origin:  Cadence Allegro 16.6-S007*
G04 Origin Date:  Thu Apr 18 09:32:52 2013*
G04 *
G04 Layer:  ETCH/BOTTOM*
G04 Layer:  PIN/BOTTOM*
G04 Layer:  VIA CLASS/BOTTOM*
G04 *
G04 Offset:    (0.000 0.000)*
G04 Mirror:    No*
G04 Mode:      Positive*
G04 Rotation:  0*
G04 FullContactRelief:  No*
G04 UndefLineWidth:     0.000*
G04 ================== end FILE IDENTIFICATION RECORD ====================*
%FSLAX34Y34*MOMM*%
%IR0*IPPOS*OFA0.00000B0.00000*MIA0B0*SFA1.00000B1.00000*%
%ADD14C,1.*%
%ADD12C,3.1*%
%ADD13C,4.2*%
%ADD11C,1.6*%
%ADD15C,1.55*%
%ADD10R,1.55X1.55*%
%ADD16C,.303*%
%ADD17C,.403*%
%ADD18C,1.658*%
G75*
%LPD*%
G75*
G36*
G01X-85720Y358100D02*
Y984920D01*
G02X-83220Y987420I2500J0D01*
G01X-52340D01*
G02X-50490Y986600I-1J-2500D01*
G01X-47640Y983450D01*
X-47310Y982440D01*
X-47370Y981920D01*
G03X-30870I8250J-840D01*
G01X-30930Y982440D01*
X-30600Y983450D01*
X-27750Y986600D01*
G02X-25900Y987420I1851J-1680D01*
G01X680D01*
G02X3180Y984920I0J-2500D01*
G01Y836060D01*
G02X2450Y834290I-2500J-4D01*
G01X-8790Y823050D01*
G03X-9520Y821280I1770J-1766D01*
G01Y658260D01*
G03X-8790Y656490I2500J-4D01*
G01X2450Y645250D01*
G02X3180Y643480I-1770J-1766D01*
G01Y620470D01*
G02X1780Y618230I-2500J5D01*
G01X-2910Y615940D01*
X-4330Y616090D01*
X-4900Y616530D01*
G03Y603470I-5100J-6530D01*
G01X-4330Y603910D01*
X-2910Y604060D01*
X1780Y601770D01*
G02X3180Y599530I-1100J-2245D01*
G01Y575720D01*
G03X3910Y573950I2500J-4D01*
G01X43720Y534130D01*
G02X44450Y532360I-1770J-1766D01*
G01Y358100D01*
G02X41950Y355600I-2500J0D01*
G01X-53140D01*
G02X-55640Y358100I0J2500D01*
G01Y380220D01*
G03X-55920Y381370I-2500J0D01*
G01X-57940Y385250D01*
X-57850Y386630D01*
X-57440Y387210D01*
G03X-75920I-9240J6490D01*
G01X-75510Y386630D01*
X-75420Y385250D01*
X-77440Y381370D01*
G03X-77720Y380220I2220J-1150D01*
G01Y358100D01*
G02X-80220Y355600I-2500J0D01*
G01X-83220D01*
G02X-85720Y358100I0J2500D01*
G37*
G36*
G01X-46260Y1007650D02*
X-48860Y1011790D01*
X-48930Y1013060D01*
X-48650Y1013650D01*
G03X-72840Y1041400I-18031J8701D01*
G01X-73420Y1041210D01*
X-74590Y1041400D01*
X-78350Y1044130D01*
G02X-79380Y1046160I1471J2023D01*
G01Y1211810D01*
G02X-78650Y1213580I2500J4D01*
G01X-48350Y1243870D01*
G03X-47620Y1245640I-1770J1766D01*
G01Y1291180D01*
G03X-48350Y1292950I-2500J4D01*
G01X-62420Y1307020D01*
G02X-62960Y1309740I1771J1765D01*
G01X-62670Y1310440D01*
X-61410Y1311280D01*
X5310D01*
G03X7080Y1312010I4J2500D01*
G01X18320Y1323250D01*
G03X19050Y1325020I-1770J1766D01*
G01Y2021440D01*
G03X18320Y2023210I-2500J4D01*
G01X10250Y2031270D01*
G03X8490Y2032000I-1765J-1770D01*
G01X7860D01*
X6400Y2033460D01*
Y2035050D01*
X6850Y2036020D01*
X7260Y2036380D01*
G03X8970Y2051140I-7259J8320D01*
G01X8550Y2051720D01*
X8450Y2053110D01*
X10760Y2057630D01*
G03X11040Y2058770I-2219J1149D01*
G01Y2079680D01*
X9580Y2081140D01*
X8560Y2081880D01*
X7840Y2084050D01*
G02X8490Y2086640I2375J781D01*
G03X8310Y2104520I-8491J8855D01*
G02X7510Y2106360I1701J1834D01*
G01Y2110040D01*
G02X8310Y2111880I2501J6D01*
G03X-8310I-8310J9020D01*
G02X-7510Y2110040I-1701J-1834D01*
G01Y2106360D01*
G02X-8310Y2104520I-2501J-6D01*
G03X-8490Y2086640I8311J-9025D01*
G02X-7840Y2084050I-1725J-1809D01*
G01X-8240Y2082860D01*
G02X-10610Y2081140I-2374J778D01*
G01X-11040D01*
Y2058770D01*
G03X-10760Y2057630I2499J9D01*
G01X-8450Y2053110D01*
X-8550Y2051720D01*
X-8970Y2051140D01*
G03X-9680Y2039400I8971J-6434D01*
G01X-9370Y2038820D01*
X-9390Y2037500D01*
X-11920Y2033230D01*
G02X-14070Y2032000I-2153J1269D01*
G01X-36730D01*
G02X-38880Y2033230I3J2499D01*
G01X-41410Y2037500D01*
X-41430Y2038820D01*
X-41120Y2039400D01*
G03X-41830Y2051140I-9681J5306D01*
G01X-42250Y2051720D01*
X-42350Y2053110D01*
X-40040Y2057630D01*
G03X-39760Y2058770I-2219J1149D01*
G01Y2079680D01*
X-41220Y2081140D01*
X-42240Y2081880D01*
X-42960Y2084050D01*
G02X-42310Y2086640I2375J781D01*
G03X-42490Y2104520I-8491J8855D01*
G02X-43290Y2106360I1701J1834D01*
G01Y2110040D01*
G02X-42490Y2111880I2501J6D01*
G03X-58530Y2130430I-8312J9022D01*
G01X-59100Y2129970D01*
X-60520Y2129800D01*
X-65260Y2132050D01*
G02X-66680Y2134310I1082J2256D01*
G01Y2140620D01*
G02X-64180Y2143120I2500J0D01*
G01X16840D01*
G02X18480Y2142510I4J-2500D01*
G01X21300Y2140070D01*
X21730Y2139280D01*
X21790Y2138830D01*
G03X38210I8210J1170D01*
G01X38270Y2139280D01*
X38700Y2140070D01*
X41520Y2142510D01*
G02X43160Y2143120I1636J-1890D01*
G01X153080D01*
G02X155580Y2140620I0J-2500D01*
G01Y2135670D01*
G02X153080Y2133170I-2500J0D01*
G01X129930D01*
G03X127430Y2130670I0J-2500D01*
G01Y2110090D01*
X128890Y2108630D01*
X129450D01*
X130590Y2105790D01*
G02X130210Y2103270I-2318J-939D01*
G03X132050Y2085900I9491J-7777D01*
G01X132490Y2085560D01*
X132980Y2084580D01*
X133130Y2079660D01*
X132710Y2078660D01*
X132290Y2078290D01*
G03X132960Y2061360I7409J-8185D01*
G02X133930Y2059380I-1531J-1978D01*
G01Y2055420D01*
G02X132960Y2053440I-2501J-2D01*
G03X130020Y2039400I6742J-8740D01*
G01X130330Y2038820D01*
X130310Y2037500D01*
X127780Y2033230D01*
G02X125630Y2032000I-2153J1269D01*
G01X102970D01*
G02X100820Y2033230I3J2499D01*
G01X98290Y2037500D01*
X98270Y2038820D01*
X98580Y2039400D01*
G03X95640Y2053440I-9682J5300D01*
G02X94670Y2055420I1531J1978D01*
G01Y2059380D01*
G02X95640Y2061360I2501J2D01*
G03X96310Y2078290I-6739J8745D01*
G01X95890Y2078660D01*
X95470Y2079660D01*
X95620Y2084580D01*
X96110Y2085560D01*
X96550Y2085900D01*
G03X98390Y2103270I-7651J9593D01*
G02X98010Y2105790I1938J1581D01*
G01X98520Y2107070D01*
G02X100840Y2108630I2317J-941D01*
G01X101170D01*
Y2130670D01*
G03X98670Y2133170I-2500J0D01*
G01X79130D01*
G03X76630Y2130670I0J-2500D01*
G01Y2110090D01*
X78090Y2108630D01*
X78650D01*
X79790Y2105790D01*
G02X79410Y2103270I-2318J-939D01*
G03X81250Y2085900I9491J-7777D01*
G01X81690Y2085560D01*
X82180Y2084580D01*
X82330Y2079660D01*
X81910Y2078660D01*
X81490Y2078290D01*
G03X82160Y2061360I7409J-8185D01*
G02X83130Y2059380I-1531J-1978D01*
G01Y2055420D01*
G02X82160Y2053440I-2501J-2D01*
G03X81640Y2036380I6740J-8743D01*
G01X82050Y2036020D01*
X82500Y2035050D01*
Y2034500D01*
G02X80000Y2032000I-2500J0D01*
G01X79380D01*
X73750Y2026380D01*
G03X73020Y2024610I1770J-1766D01*
G01Y1413920D01*
G02X72290Y1412150I-2500J-4D01*
G01X61050Y1400910D01*
G03X60320Y1399140I1770J-1766D01*
G01Y1302790D01*
G02X59590Y1301020I-2500J-4D01*
G01X48350Y1289780D01*
G03X47620Y1288010I1770J-1766D01*
G01Y1217060D01*
G03X48350Y1215290I2500J-4D01*
G01X65950Y1197710D01*
G02X66680Y1195940I-1770J-1766D01*
G01Y1090060D01*
G03X67410Y1088290I2500J-4D01*
G01X99180Y1056520D01*
X99350Y1054730D01*
X98840Y1053980D01*
G03X98430Y1042150I9109J-6238D01*
G01X98780Y1041570D01*
X98790Y1040240D01*
X96010Y1035380D01*
G03X95680Y1034140I2170J-1241D01*
G01Y1008980D01*
G02X93180Y1006480I-2500J0D01*
G01X-44150D01*
G02X-46260Y1007650I7J2499D01*
G37*
G36*
G01X72290Y445240D02*
X70580Y446950D01*
G02X69850Y448710I1769J1765D01*
G01Y548240D01*
G03X69120Y550010I-2500J4D01*
G01X29310Y589820D01*
G02X28580Y591590I1770J1766D01*
G01Y662540D01*
G03X27850Y664310I-2500J4D01*
G01X16610Y675550D01*
G02X15880Y677320I1770J1766D01*
G01Y805410D01*
G02X16610Y807180I2500J4D01*
G01X27850Y818420D01*
G03X28580Y820190I-1770J1766D01*
G01Y984920D01*
G02X31080Y987420I2500J0D01*
G01X66880D01*
G02X68930Y986360I6J-2501D01*
G01X71640Y982500D01*
X71800Y981300D01*
X71580Y980720D01*
G03X87180I7800J-2820D01*
G01X86960Y981300D01*
X87120Y982500D01*
X89830Y986360D01*
G02X91880Y987420I2044J-1441D01*
G01X97120D01*
G02X99340Y986070I0J-2501D01*
G01X101700Y981490D01*
X101600Y980100D01*
X101190Y979520D01*
G03X110650Y982560I6761J-4799D01*
G01X109890Y982820D01*
X108970Y984120D01*
Y985960D01*
X110430Y987420D01*
X111120D01*
X135790Y1012090D01*
G03X136520Y1013860I-1770J1766D01*
G01Y1068940D01*
G03X135790Y1070710I-2500J4D01*
G01X116720Y1089780D01*
X116550Y1091570D01*
X117060Y1092320D01*
G03X101720Y1107660I-9110J6230D01*
G01X100970Y1107150D01*
X99180Y1107320D01*
X95980Y1110520D01*
G02X95250Y1112290I1770J1766D01*
G01Y1133890D01*
G02X96430Y1136020I2501J6D01*
G01X100600Y1138600D01*
X101890Y1138660D01*
X102480Y1138370D01*
G03Y1160330I5470J10980D01*
G01X101890Y1160040D01*
X100600Y1160100D01*
X96430Y1162680D01*
G02X95250Y1164810I1321J2124D01*
G01Y1195940D01*
G03X94520Y1197710I-2500J4D01*
G01X70580Y1221650D01*
G02X69850Y1223420I1770J1766D01*
G01Y1259170D01*
G02X71200Y1261390I2501J0D01*
G01X75780Y1263750D01*
X77170Y1263650D01*
X77750Y1263240D01*
G03X83720Y1278210I4798J6762D01*
G01X83310Y1278270D01*
X82590Y1278620D01*
X82300Y1278910D01*
G02Y1282450I1767J1770D01*
G01X82550Y1282700D01*
Y1316280D01*
G02X83350Y1318120I2501J7D01*
G01X86430Y1320970D01*
X87420Y1321310D01*
X87940Y1321270D01*
G03X97210Y1342520I956J12230D01*
G02X96410Y1344360I1701J1834D01*
G01Y1348040D01*
G02X97210Y1349880I2501J6D01*
G03X97390Y1367760I-8311J9025D01*
G02X96740Y1370350I1725J1809D01*
G01X97140Y1371540D01*
G02X99510Y1373260I2374J-778D01*
G01X99940D01*
Y1394500D01*
G02X102440Y1397000I2500J0D01*
G01X126160D01*
G02X128660Y1394500I0J-2500D01*
G01Y1374720D01*
X130120Y1373260D01*
X131140Y1372520D01*
X131860Y1370350D01*
G02X131210Y1367760I-2375J-781D01*
G03X131390Y1349880I8491J-8855D01*
G02X132190Y1348040I-1701J-1834D01*
G01Y1344360D01*
G02X131390Y1342520I-2501J-6D01*
G03X147430Y1323970I8312J-9022D01*
G01X148000Y1324430D01*
X149420Y1324600D01*
X154160Y1322350D01*
G02X155580Y1320090I-1082J-2256D01*
G01Y1315490D01*
G02X154850Y1313720I-2500J-4D01*
G01X137250Y1296130D01*
G03X136520Y1294360I1770J-1766D01*
G01Y1226590D01*
G03X137250Y1224820I2500J-4D01*
G01X164370Y1197710D01*
G02X165100Y1195940I-1770J-1766D01*
G01Y890040D01*
G02X164370Y888270I-2500J-4D01*
G01X137250Y861150D01*
G03X136520Y859380I1770J-1766D01*
G01Y820190D01*
G03X137250Y818420I2500J-4D01*
G01X151740Y803930D01*
G02X152290Y801210I-1762J-1772D01*
G01X152000Y800510D01*
X150740Y799670D01*
X129930D01*
G03X127430Y797170I0J-2500D01*
G01Y776590D01*
X128890Y775130D01*
X129450D01*
X130590Y772290D01*
G02X130210Y769770I-2318J-939D01*
G03X131390Y752980I9492J-7769D01*
G02X132190Y751140I-1701J-1834D01*
G01Y747460D01*
G02X131390Y745620I-2501J-6D01*
G03Y727580I8310J-9020D01*
G02X132190Y725740I-1701J-1834D01*
G01Y722060D01*
G02X131390Y720220I-2501J-6D01*
G03Y702180I8310J-9020D01*
G02X132190Y700340I-1701J-1834D01*
G01Y696660D01*
G02X131390Y694820I-2501J-6D01*
G03Y676780I8310J-9020D01*
G02X132190Y674940I-1701J-1834D01*
G01Y671260D01*
G02X131390Y669420I-2501J-6D01*
G03Y651380I8310J-9020D01*
G02X132190Y649540I-1701J-1834D01*
G01Y645860D01*
G02X131390Y644020I-2501J-6D01*
G03Y625980I8310J-9020D01*
G02X132190Y624140I-1701J-1834D01*
G01Y620460D01*
G02X131390Y618620I-2501J-6D01*
G03Y600580I8310J-9020D01*
G02X132190Y598740I-1701J-1834D01*
G01Y595060D01*
G02X131390Y593220I-2501J-6D01*
G03X130210Y576430I8312J-9021D01*
G02X130590Y573910I-1938J-1581D01*
G01X130080Y572630D01*
G02X127760Y571070I-2317J941D01*
G01X127430D01*
Y547990D01*
X128890Y546530D01*
X129450D01*
X130590Y543690D01*
G02X130210Y541170I-2318J-939D01*
G03X131390Y524380I9492J-7769D01*
G02X132190Y522540I-1701J-1834D01*
G01Y518860D01*
G02X131390Y517020I-2501J-6D01*
G03Y498980I8310J-9020D01*
G02X132190Y497140I-1701J-1834D01*
G01Y493460D01*
G02X131390Y491620I-2501J-6D01*
G03Y473580I8310J-9020D01*
G02X132190Y471740I-1701J-1834D01*
G01Y468060D01*
G02X131390Y466220I-2501J-6D01*
G03X128720Y451730I8311J-9022D01*
G01X129010Y451140D01*
X128950Y449850D01*
X126370Y445680D01*
G02X124240Y444500I-2124J1321D01*
G01X104360D01*
G02X102230Y445680I-6J2501D01*
G01X99650Y449850D01*
X99590Y451140D01*
X99880Y451730D01*
G03X97210Y466220I-10981J5468D01*
G02X96410Y468060I1701J1834D01*
G01Y471740D01*
G02X97210Y473580I2501J6D01*
G03Y491620I-8310J9020D01*
G02X96410Y493460I1701J1834D01*
G01Y497140D01*
G02X97210Y498980I2501J6D01*
G03Y517020I-8310J9020D01*
G02X96410Y518860I1701J1834D01*
G01Y522540D01*
G02X97210Y524380I2501J6D01*
G03X98390Y541170I-8312J9021D01*
G02X98010Y543690I1938J1581D01*
G01X98520Y544970D01*
G02X100840Y546530I2317J-941D01*
G01X101170D01*
Y569610D01*
X99710Y571070D01*
X99150D01*
X98010Y573910D01*
G02X98390Y576430I2318J939D01*
G03X97210Y593220I-9492J7769D01*
G02X96410Y595060I1701J1834D01*
G01Y598740D01*
G02X97210Y600580I2501J6D01*
G03Y618620I-8310J9020D01*
G02X96410Y620460I1701J1834D01*
G01Y624140D01*
G02X97210Y625980I2501J6D01*
G03Y644020I-8310J9020D01*
G02X96410Y645860I1701J1834D01*
G01Y649540D01*
G02X97210Y651380I2501J6D01*
G03Y669420I-8310J9020D01*
G02X96410Y671260I1701J1834D01*
G01Y674940D01*
G02X97210Y676780I2501J6D01*
G03Y694820I-8310J9020D01*
G02X96410Y696660I1701J1834D01*
G01Y700340D01*
G02X97210Y702180I2501J6D01*
G03Y720220I-8310J9020D01*
G02X96410Y722060I1701J1834D01*
G01Y725740D01*
G02X97210Y727580I2501J6D01*
G03Y745620I-8310J9020D01*
G02X96410Y747460I1701J1834D01*
G01Y751140D01*
G02X97210Y752980I2501J6D01*
G03X98390Y769770I-8312J9021D01*
G02X98010Y772290I1938J1581D01*
G01X98520Y773570D01*
G02X100840Y775130I2317J-941D01*
G01X101170D01*
Y797170D01*
G03X98670Y799670I-2500J0D01*
G01X79130D01*
G03X76630Y797170I0J-2500D01*
G01Y776590D01*
X78090Y775130D01*
X78650D01*
X79790Y772290D01*
G02X79410Y769770I-2318J-939D01*
G03X80590Y752980I9492J-7769D01*
G02X81390Y751140I-1701J-1834D01*
G01Y747460D01*
G02X80590Y745620I-2501J-6D01*
G03Y727580I8310J-9020D01*
G02X81390Y725740I-1701J-1834D01*
G01Y722060D01*
G02X80590Y720220I-2501J-6D01*
G03Y702180I8310J-9020D01*
G02X81390Y700340I-1701J-1834D01*
G01Y696660D01*
G02X80590Y694820I-2501J-6D01*
G03Y676780I8310J-9020D01*
G02X81390Y674940I-1701J-1834D01*
G01Y671260D01*
G02X80590Y669420I-2501J-6D01*
G03Y651380I8310J-9020D01*
G02X81390Y649540I-1701J-1834D01*
G01Y645860D01*
G02X80590Y644020I-2501J-6D01*
G03Y625980I8310J-9020D01*
G02X81390Y624140I-1701J-1834D01*
G01Y620460D01*
G02X80590Y618620I-2501J-6D01*
G03Y600580I8310J-9020D01*
G02X81390Y598740I-1701J-1834D01*
G01Y595060D01*
G02X80590Y593220I-2501J-6D01*
G03X79410Y576430I8312J-9021D01*
G02X79790Y573910I-1938J-1581D01*
G01X79280Y572630D01*
G02X76960Y571070I-2317J941D01*
G01X76630D01*
Y547990D01*
X78090Y546530D01*
X78650D01*
X79790Y543690D01*
G02X79410Y541170I-2318J-939D01*
G03X80590Y524380I9492J-7769D01*
G02X81390Y522540I-1701J-1834D01*
G01Y518860D01*
G02X80590Y517020I-2501J-6D01*
G03Y498980I8310J-9020D01*
G02X81390Y497140I-1701J-1834D01*
G01Y493460D01*
G02X80590Y491620I-2501J-6D01*
G03Y473580I8310J-9020D01*
G02X81390Y471740I-1701J-1834D01*
G01Y468060D01*
G02X80590Y466220I-2501J-6D01*
G03X79110Y449800I8310J-9026D01*
G02X79420Y447310I-1990J-1512D01*
G01X78870Y446020D01*
G02X76570Y444500I-2300J981D01*
G01X74060D01*
G02X72290Y445240I5J2498D01*
G37*
%LPC*%
G75*
G36*
G01X34020Y390080D02*
G02X15740Y373040I-8614J-9085D01*
G01X15400Y373450D01*
X14430Y373930D01*
X9600Y374080D01*
X8600Y373670D01*
X8230Y373280D01*
G02X-7720Y389230I-8230J7720D01*
G01X-7330Y389600D01*
X-6920Y390600D01*
X-7070Y395430D01*
X-7550Y396400D01*
X-7960Y396740D01*
G02X-8620Y415480I7961J9662D01*
G03X-7850Y417290I-1729J1804D01*
G01Y420910D01*
G03X-8620Y422720I-2499J6D01*
G02Y440880I8620J9080D01*
G03X-7850Y442690I-1729J1804D01*
G01Y446310D01*
G03X-8620Y448120I-2499J6D01*
G02X-9800Y465000I8619J9084D01*
G03X-9440Y467510I-1952J1561D01*
G01X-10260Y469490D01*
X-11520Y470330D01*
X-12270D01*
Y492370D01*
G02X-9770Y494870I2500J0D01*
G01X10810D01*
X12270Y493410D01*
Y493210D01*
X15090Y492040D01*
G03X17600Y492400I949J2312D01*
G02X34020Y473520I7798J-9798D01*
G03X33250Y471710I1729J-1804D01*
G01Y468090D01*
G03X34020Y466280I2499J-6D01*
G02Y448120I-8620J-9080D01*
G03X33250Y446310I1729J-1804D01*
G01Y442690D01*
G03X34020Y440880I2499J-6D01*
G02Y422720I-8620J-9080D01*
G03X33250Y420910I1729J-1804D01*
G01Y417290D01*
G03X34020Y415480I2499J-6D01*
G02Y397320I-8620J-9080D01*
G03X33250Y395510I1729J-1804D01*
G01Y391890D01*
G03X34020Y390080I2499J-6D01*
G37*
G36*
G01X24710Y1242150D02*
X25120Y1241570D01*
G02X6640I-9240J-6490D01*
G01X7050Y1242150D01*
X7140Y1243530D01*
X5120Y1247410D01*
G02X4840Y1248560I2220J1150D01*
G01Y1269020D01*
G02X7340Y1271520I2500J0D01*
G01X24420D01*
G02X26920Y1269020I0J-2500D01*
G01Y1248560D01*
G02X26640Y1247410I-2500J0D01*
G01X24620Y1243530D01*
X24710Y1242150D01*
G37*
G36*
G01X105120Y899250D02*
Y897810D01*
G03X105490Y896510I2501J9D01*
G02X91350I-7070J-4330D01*
G03X91720Y897810I-2131J1309D01*
G01Y899250D01*
G03X91350Y900550I-2501J-9D01*
G02Y909210I7070J4330D01*
G03X91720Y910510I-2131J1309D01*
G01Y911950D01*
G03X91350Y913250I-2501J-9D01*
G02Y921910I7070J4330D01*
G03X91720Y923210I-2131J1309D01*
G01Y924650D01*
G03X91350Y925950I-2501J-9D01*
G02X105490I7070J4330D01*
G03X105120Y924650I2131J-1309D01*
G01Y923210D01*
G03X105490Y921910I2501J9D01*
G02Y913250I-7070J-4330D01*
G03X105120Y911950I2131J-1309D01*
G01Y910510D01*
G03X105490Y909210I2501J9D01*
G02Y900550I-7070J-4330D01*
G03X105120Y899250I2131J-1309D01*
G37*
G36*
G01X43460Y684280D02*
X26380D01*
G02X23880Y686780I0J2500D01*
G01Y707240D01*
G02X24160Y708390I2500J0D01*
G01X26180Y712270D01*
X26090Y713650D01*
X25680Y714230D01*
G02X44160I9240J6490D01*
G01X43750Y713650D01*
X43660Y712270D01*
X45680Y708390D01*
G02X45960Y707240I-2220J-1150D01*
G01Y686780D01*
G02X43460Y684280I-2500J0D01*
G37*
G54D18*
X-10000Y552000D03*
X-56120Y809620D03*
X-26000Y1056000D03*
X34200Y1108800D03*
Y1154980D03*
X129150Y900680D03*
X107950Y1270000D03*
%LPD*%
G75*
G54D10*
X-66680Y368300D03*
X-57150Y-50800D03*
Y101600D03*
Y149220D03*
Y301620D03*
X0Y482600D03*
Y1333500D03*
X-50800D03*
X0Y1562100D03*
X-50800D03*
X0Y1816100D03*
X-50800D03*
X0Y2070100D03*
X-50800D03*
X34920Y695320D03*
X15880Y1260480D03*
X88900Y50800D03*
X139700D03*
X88900Y304800D03*
X139700D03*
X88900Y558800D03*
X139700D03*
X88900Y787400D03*
X139700D03*
X107950Y1022350D03*
X88900Y1384300D03*
X139700D03*
X88900Y1638300D03*
X139700D03*
X88900Y1892300D03*
X139700D03*
X88900Y2120900D03*
X139700D03*
G54D11*
X-66680Y393700D03*
X-31750Y-50800D03*
Y101600D03*
Y149220D03*
Y301620D03*
X0Y381000D03*
Y406400D03*
Y431800D03*
Y457200D03*
X25400Y381000D03*
Y406400D03*
Y431800D03*
Y457200D03*
Y482600D03*
X34920Y720720D03*
X15880Y1235080D03*
G54D12*
X-66680Y1022350D03*
G54D13*
X-76200Y1282700D03*
Y2171700D03*
X165100Y-50800D03*
Y838200D03*
Y1282700D03*
Y2171700D03*
G54D14*
X-10000Y552000D03*
Y610000D03*
X-56120Y809620D03*
X-39120Y981080D03*
X-26000Y1056000D03*
X79380Y977900D03*
X34200Y1108800D03*
Y1154980D03*
X82550Y1270000D03*
X30000Y2140000D03*
X129150Y900680D03*
X98420Y892180D03*
Y904880D03*
Y917580D03*
Y930280D03*
X107950Y974720D03*
Y1270000D03*
G54D15*
X0Y1409700D03*
Y1384300D03*
Y1358900D03*
X-50800Y1409700D03*
Y1384300D03*
Y1358900D03*
X0Y1485900D03*
Y1460500D03*
Y1435100D03*
X-50800Y1485900D03*
Y1460500D03*
Y1435100D03*
X0Y1536700D03*
Y1511300D03*
X-50800Y1536700D03*
Y1511300D03*
X0Y1638300D03*
Y1612900D03*
Y1587500D03*
X-50800Y1638300D03*
Y1612900D03*
Y1587500D03*
X0Y1714500D03*
Y1689100D03*
Y1663700D03*
X-50800Y1714500D03*
Y1689100D03*
Y1663700D03*
X0Y1790700D03*
Y1765300D03*
Y1739900D03*
X-50800Y1790700D03*
Y1765300D03*
Y1739900D03*
X0Y1866900D03*
Y1841500D03*
X-50800Y1866900D03*
Y1841500D03*
X0Y1943100D03*
Y1917700D03*
Y1892300D03*
X-50800Y1943100D03*
Y1917700D03*
Y1892300D03*
X0Y2019300D03*
Y1993900D03*
Y1968500D03*
X-50800Y2019300D03*
Y1993900D03*
Y1968500D03*
X0Y2095500D03*
Y2044700D03*
X-50800Y2095500D03*
Y2044700D03*
X0Y2120900D03*
X-50800D03*
X88900Y0D03*
Y25400D03*
X139700Y0D03*
Y25400D03*
X88900Y76200D03*
Y101600D03*
Y127000D03*
X139700Y76200D03*
Y101600D03*
Y127000D03*
X88900Y152400D03*
Y177800D03*
Y203200D03*
X139700Y152400D03*
Y177800D03*
Y203200D03*
X88900Y228600D03*
Y254000D03*
Y279400D03*
X139700Y228600D03*
Y254000D03*
Y279400D03*
X88900Y330200D03*
Y355600D03*
X139700Y330200D03*
Y355600D03*
X88900Y381000D03*
Y406400D03*
Y431800D03*
X139700Y381000D03*
Y406400D03*
Y431800D03*
X88900Y457200D03*
Y482600D03*
Y508000D03*
X139700Y457200D03*
Y482600D03*
Y508000D03*
X88900Y533400D03*
Y584200D03*
X139700Y533400D03*
Y584200D03*
X88900Y609600D03*
Y635000D03*
Y660400D03*
X139700Y609600D03*
Y635000D03*
Y660400D03*
X88900Y685800D03*
Y711200D03*
Y736600D03*
X139700Y685800D03*
Y711200D03*
Y736600D03*
X88900Y762000D03*
X139700D03*
X107950Y1098550D03*
Y1047750D03*
Y1149350D03*
X88900Y1333500D03*
X139700D03*
X88900Y1358900D03*
Y1409700D03*
X139700Y1358900D03*
Y1409700D03*
X88900Y1435100D03*
Y1460500D03*
Y1485900D03*
X139700Y1435100D03*
Y1460500D03*
Y1485900D03*
X88900Y1511300D03*
Y1536700D03*
Y1562100D03*
X139700Y1511300D03*
Y1536700D03*
Y1562100D03*
X88900Y1587500D03*
Y1612900D03*
X139700Y1587500D03*
Y1612900D03*
X88900Y1663700D03*
Y1689100D03*
Y1714500D03*
X139700Y1663700D03*
Y1689100D03*
Y1714500D03*
X88900Y1739900D03*
Y1765300D03*
Y1790700D03*
X139700Y1739900D03*
Y1765300D03*
Y1790700D03*
X88900Y1816100D03*
Y1841500D03*
Y1866900D03*
X139700Y1816100D03*
Y1841500D03*
Y1866900D03*
X88900Y1917700D03*
Y1943100D03*
X139700Y1917700D03*
Y1943100D03*
X88900Y1968500D03*
Y1993900D03*
Y2019300D03*
X139700Y1968500D03*
Y1993900D03*
Y2019300D03*
X88900Y2044700D03*
Y2070100D03*
Y2095500D03*
X139700Y2044700D03*
Y2070100D03*
Y2095500D03*
G54D16*
G01X-80470Y393700D02*
X-66680D01*
G01X-78930Y381450D02*
X-66680Y393700D01*
G01X-80220Y368300D02*
X-66680D01*
G01X-80220Y381840D02*
X-66680Y368300D01*
G01X0Y367210D02*
Y381000D01*
G01X-13790D02*
X0D01*
G01X-12250Y368750D02*
X0Y381000D01*
G01X-12250Y393250D02*
X0Y381000D01*
G01X-66680Y393700D02*
Y407490D01*
G01Y393700D02*
X-52890D01*
G01X-66680Y368300D02*
X-53140D01*
G01X-66680D02*
X-53140Y381840D01*
G01X-20130Y541870D02*
X-10000Y552000D01*
G01D02*
X130Y562130D01*
G01X-20130D02*
X-10000Y552000D01*
G01D02*
X130Y541870D01*
G01X-20130Y599870D02*
X-10000Y610000D01*
G01D02*
X130Y620130D01*
G01X-20130D02*
X-10000Y610000D01*
G01D02*
X130Y599870D01*
G01X-66250Y799490D02*
X-56120Y809620D01*
G01D02*
X-45990Y799490D01*
G01X-56120Y809620D02*
X-45990Y819750D01*
G01X-66250D02*
X-56120Y809620D01*
G01X-49250Y970950D02*
X-39120Y981080D01*
G01D02*
X-28990Y970950D01*
G01X-39120Y970290D02*
Y981080D01*
G01X-49910D02*
X-39120D01*
G01X34920Y720720D02*
Y734510D01*
G01X21130Y720720D02*
X34920D01*
G01D02*
X48710D01*
G01X22670Y708470D02*
X34920Y720720D01*
G01Y681780D02*
Y695320D01*
G01X21380D02*
X34920D01*
G01D02*
X48460D01*
G01X21380Y681780D02*
X34920Y695320D01*
G01X69250Y967770D02*
X79380Y977900D01*
G01D02*
X89510Y967770D01*
G01X68590Y977900D02*
X79380D01*
G01X72420Y1259870D02*
X82550Y1270000D01*
G01X98420Y930280D02*
X108550Y940410D01*
G01X88290D02*
X98420Y930280D01*
G01D02*
Y941070D01*
G01X87630Y930280D02*
X98420D01*
G01X87630Y917580D02*
X98420D01*
G01D02*
X109210D01*
G01X85530Y911340D02*
X98420Y917580D01*
G01D02*
X111310Y923820D01*
G01X87630Y904880D02*
X98420D01*
G01D02*
X109210D01*
G01X85530Y898640D02*
X98420Y904880D01*
G01D02*
X111310Y911120D01*
G01X88290Y882050D02*
X98420Y892180D01*
G01D02*
X108550Y882050D01*
G01X98420Y881390D02*
Y892180D01*
G01X87630D02*
X98420D01*
G01X119020Y890550D02*
X129150Y900680D01*
G01D02*
X139280Y910810D01*
G01X119020D02*
X129150Y900680D01*
G01D02*
X139280Y890550D01*
G01X97820Y964590D02*
X107950Y974720D01*
G01D02*
X118080Y984850D01*
G01X97820D02*
X107950Y974720D01*
G01D02*
X118080Y964590D01*
G01X79380Y967110D02*
Y977900D01*
G01X107950Y1098550D02*
Y1112090D01*
G01Y1098550D02*
X121490D01*
G01X107950D02*
X120020Y1110620D01*
G01X107950Y1098550D02*
X120020Y1086480D01*
G01X97820Y1259870D02*
X107950Y1270000D01*
G01D02*
X118080Y1259870D01*
G01X82550Y1270000D02*
X92680Y1259870D01*
G01X82550Y1259210D02*
Y1270000D01*
G01X107950D02*
X118080Y1280130D01*
G01X97820D02*
X107950Y1270000D01*
G01X82550D02*
X92680Y1280130D01*
G01X126160Y1384300D02*
X139700D01*
G01X126160Y1370760D02*
X139700Y1384300D01*
G01X126160Y1377530D02*
X139700Y1384300D01*
G01X126160Y1391070D02*
X139700Y1384300D01*
G01X88900D02*
X102440D01*
G01X88900D02*
X102440Y1370760D01*
G01X88900Y1384300D02*
X102440Y1391070D01*
G01X88900Y1384300D02*
X102440Y1377530D01*
G54D17*
G01X-36130Y1045870D02*
X-26000Y1056000D01*
G01D02*
X-15870Y1066130D01*
G01X-36130D02*
X-26000Y1056000D01*
G01D02*
X-15870Y1045870D01*
G01X2090Y1235080D02*
X15880D01*
G01X2340Y1260480D02*
X15880D01*
G01X-13540Y2070100D02*
X0D01*
G01D02*
X13540D01*
G01X-13540Y2056560D02*
X0Y2070100D01*
G01X-50800D02*
X-37260D01*
G01X-50800D02*
X-37260Y2083640D01*
G01X-50800Y2070100D02*
X-37260Y2056560D01*
G01X-13540Y2044700D02*
X0D01*
G01D02*
X13540D01*
G01X0D02*
X12070Y2056770D01*
G01X-50800Y2044700D02*
X-37260D01*
G01X-50800D02*
X-38730Y2056770D01*
G01X-50800Y2044700D02*
X-35360Y2051980D01*
G01X24070Y1098670D02*
X34200Y1108800D01*
G01D02*
X44330Y1118930D01*
G01X24070D02*
X34200Y1108800D01*
G01D02*
X44330Y1098670D01*
G01X24070Y1144850D02*
X34200Y1154980D01*
G01D02*
X44330Y1165110D01*
G01X24070D02*
X34200Y1154980D01*
G01D02*
X44330Y1144850D01*
G01X15880Y1221290D02*
Y1235080D01*
G01D02*
X29670D01*
G01X15880Y1260480D02*
Y1274020D01*
G01Y1260480D02*
X29420D01*
G01X75360Y2070100D02*
X88900D01*
G01X76830Y2058030D02*
X88900Y2070100D01*
G01X75360Y2044700D02*
X88900D01*
G01X76830Y2032630D02*
X88900Y2044700D01*
G01X19870Y2129870D02*
X30000Y2140000D01*
G01D02*
X40130Y2129870D01*
G01X94410Y1047750D02*
X107950D01*
G01X95880Y1035680D02*
X107950Y1047750D01*
G01X95880Y1059820D02*
X107950Y1047750D01*
G01X126160Y2070100D02*
X139700D01*
G01X127630Y2058030D02*
X139700Y2070100D01*
G01X127630Y2082170D02*
X139700Y2070100D01*
G01X126160Y2044700D02*
X139700D01*
G01X127630Y2056770D02*
X139700Y2044700D01*
G01X124260Y2037420D02*
X139700Y2044700D01*
G01X88900Y2070100D02*
X102440D01*
G01X88900Y2044700D02*
X102440D01*
M02*
