G04 ================== begin FILE IDENTIFICATION RECORD ==================*
G04 Layout Name:  E:/ORCAD_sch/Other/TEST-UM_01v1/pcb/test-um_01v1.brd*
G04 Film Name:    MASK_TOP*
G04 File Format:  Gerber RS274X*
G04 File Origin:  Cadence Allegro 16.6-S005*
G04 Origin Date:  Wed Mar 27 11:43:21 2013*
G04 *
G04 Layer:  VIA CLASS/SOLDERMASK_TOP*
G04 Layer:  PIN/SOLDERMASK_TOP*
G04 Layer:  PACKAGE GEOMETRY/SOLDERMASK_TOP*
G04 *
G04 Offset:    (0.000 0.000)*
G04 Mirror:    No*
G04 Mode:      Positive*
G04 Rotation:  0*
G04 FullContactRelief:  No*
G04 UndefLineWidth:     0.000*
G04 ================== end FILE IDENTIFICATION RECORD ====================*
%FSLAX34Y34*MOMM*%
%IR0*IPPOS*OFA0.00000B0.00000*MIA0B0*SFA1.00000B1.00000*%
%ADD20R,2.4X.8*%
%ADD12C,3.3*%
%ADD14C,4.4*%
%ADD11C,1.8*%
%ADD23C,1.75*%
%ADD18R,2.25X2.25*%
%ADD10R,1.75X1.75*%
%ADD26R,1.X1.15*%
%ADD24R,1.15X1.*%
%ADD19R,1.3X1.6*%
%ADD25R,1.6X1.3*%
%ADD17R,1.45X2.*%
%ADD22R,2.X1.45*%
%ADD21R,2.2X3.6*%
%ADD13R,6.1X2.4*%
%ADD15R,1.2X1.95*%
%ADD16R,1.95X1.2*%
%LPD*%
G75*
G54D10*
X-66680Y368300D03*
X-57150Y-50800D03*
Y101600D03*
Y149220D03*
Y301620D03*
X0Y482600D03*
Y1333500D03*
X-50800D03*
X0Y1562100D03*
X-50800D03*
X0Y1816100D03*
X-50800D03*
X0Y2070100D03*
X-50800D03*
X34920Y695320D03*
X15880Y1260480D03*
X88900Y50800D03*
X139700D03*
X88900Y304800D03*
X139700D03*
X88900Y558800D03*
X139700D03*
X88900Y787400D03*
X139700D03*
X107950Y1022350D03*
X88900Y1384300D03*
X139700D03*
X88900Y1638300D03*
X139700D03*
X88900Y1892300D03*
X139700D03*
X88900Y2120900D03*
X139700D03*
G54D11*
X-66680Y393700D03*
X-31750Y-50800D03*
Y101600D03*
Y149220D03*
Y301620D03*
X0Y381000D03*
Y406400D03*
Y431800D03*
Y457200D03*
X25400Y381000D03*
Y406400D03*
Y431800D03*
Y457200D03*
Y482600D03*
X34920Y720720D03*
X15880Y1235080D03*
G54D20*
X-12620Y876300D03*
Y863600D03*
Y850900D03*
Y952500D03*
Y939800D03*
Y927100D03*
Y914400D03*
Y901700D03*
Y889000D03*
Y965200D03*
X79380Y876300D03*
Y863600D03*
Y850900D03*
Y952500D03*
Y939800D03*
Y927100D03*
Y914400D03*
Y901700D03*
Y889000D03*
Y965200D03*
G54D21*
X1550Y1022350D03*
X36550D03*
G54D12*
X-66680D03*
G54D13*
X-50800Y1130300D03*
X34200D03*
G54D22*
X-28000Y1012000D03*
Y1042000D03*
G54D23*
X0Y1409700D03*
Y1384300D03*
Y1358900D03*
X-50800Y1409700D03*
Y1384300D03*
Y1358900D03*
X0Y1485900D03*
Y1460500D03*
Y1435100D03*
X-50800Y1485900D03*
Y1460500D03*
Y1435100D03*
X0Y1536700D03*
Y1511300D03*
X-50800Y1536700D03*
Y1511300D03*
X0Y1638300D03*
Y1612900D03*
Y1587500D03*
X-50800Y1638300D03*
Y1612900D03*
Y1587500D03*
X0Y1714500D03*
Y1689100D03*
Y1663700D03*
X-50800Y1714500D03*
Y1689100D03*
Y1663700D03*
X0Y1790700D03*
Y1765300D03*
Y1739900D03*
X-50800Y1790700D03*
Y1765300D03*
Y1739900D03*
X0Y1866900D03*
Y1841500D03*
X-50800Y1866900D03*
Y1841500D03*
X0Y1943100D03*
Y1917700D03*
Y1892300D03*
X-50800Y1943100D03*
Y1917700D03*
Y1892300D03*
X0Y2019300D03*
Y1993900D03*
Y1968500D03*
X-50800Y2019300D03*
Y1993900D03*
Y1968500D03*
X0Y2095500D03*
Y2044700D03*
X-50800Y2095500D03*
Y2044700D03*
X0Y2120900D03*
X-50800D03*
X88900Y0D03*
Y25400D03*
X139700Y0D03*
Y25400D03*
X88900Y76200D03*
Y101600D03*
Y127000D03*
X139700Y76200D03*
Y101600D03*
Y127000D03*
X88900Y152400D03*
Y177800D03*
Y203200D03*
X139700Y152400D03*
Y177800D03*
Y203200D03*
X88900Y228600D03*
Y254000D03*
Y279400D03*
X139700Y228600D03*
Y254000D03*
Y279400D03*
X88900Y330200D03*
Y355600D03*
X139700Y330200D03*
Y355600D03*
X88900Y381000D03*
Y406400D03*
Y431800D03*
X139700Y381000D03*
Y406400D03*
Y431800D03*
X88900Y457200D03*
Y482600D03*
Y508000D03*
X139700Y457200D03*
Y482600D03*
Y508000D03*
X88900Y533400D03*
Y584200D03*
X139700Y533400D03*
Y584200D03*
X88900Y609600D03*
Y635000D03*
Y660400D03*
X139700Y609600D03*
Y635000D03*
Y660400D03*
X88900Y685800D03*
Y711200D03*
Y736600D03*
X139700Y685800D03*
Y711200D03*
Y736600D03*
X88900Y762000D03*
X139700D03*
X107950Y1098550D03*
Y1047750D03*
Y1149350D03*
X88900Y1333500D03*
X139700D03*
X88900Y1358900D03*
Y1409700D03*
X139700Y1358900D03*
Y1409700D03*
X88900Y1435100D03*
Y1460500D03*
Y1485900D03*
X139700Y1435100D03*
Y1460500D03*
Y1485900D03*
X88900Y1511300D03*
Y1536700D03*
Y1562100D03*
X139700Y1511300D03*
Y1536700D03*
Y1562100D03*
X88900Y1587500D03*
Y1612900D03*
X139700Y1587500D03*
Y1612900D03*
X88900Y1663700D03*
Y1689100D03*
Y1714500D03*
X139700Y1663700D03*
Y1689100D03*
Y1714500D03*
X88900Y1739900D03*
Y1765300D03*
Y1790700D03*
X139700Y1739900D03*
Y1765300D03*
Y1790700D03*
X88900Y1816100D03*
Y1841500D03*
Y1866900D03*
X139700Y1816100D03*
Y1841500D03*
Y1866900D03*
X88900Y1917700D03*
Y1943100D03*
X139700Y1917700D03*
Y1943100D03*
X88900Y1968500D03*
Y1993900D03*
Y2019300D03*
X139700Y1968500D03*
Y1993900D03*
Y2019300D03*
X88900Y2044700D03*
Y2070100D03*
Y2095500D03*
X139700Y2044700D03*
Y2070100D03*
Y2095500D03*
G54D14*
X-76200Y1282700D03*
Y2171700D03*
X165100Y-50800D03*
Y838200D03*
Y1282700D03*
Y2171700D03*
G54D15*
X6350Y-47620D03*
Y98420D03*
Y298450D03*
X36350Y-47620D03*
Y98420D03*
Y298450D03*
X122000Y944000D03*
X152000D03*
G54D24*
X30000Y2170000D03*
Y2154000D03*
G54D16*
X-64200Y25400D03*
Y0D03*
Y50800D03*
X-63500Y200020D03*
Y225420D03*
Y250820D03*
X-57150Y459500D03*
Y429500D03*
Y486650D03*
Y516650D03*
X50800Y25400D03*
Y0D03*
Y50800D03*
X51500Y200020D03*
Y225420D03*
Y250820D03*
X57150Y766050D03*
Y796050D03*
X28580Y766050D03*
Y796050D03*
X79380Y1226420D03*
Y1256420D03*
X56000Y2155000D03*
Y2185000D03*
X107950Y1226420D03*
Y1256420D03*
G54D25*
X114300Y883680D03*
Y900680D03*
G54D17*
X8100Y152400D03*
X38100D03*
X121520Y974720D03*
X151520D03*
G54D26*
X137000Y920000D03*
X121000D03*
G54D18*
X-10300Y572400D03*
X-53300D03*
X-10300Y629640D03*
X-53300D03*
G54D19*
X-56120Y876300D03*
X-39120D03*
Y850900D03*
X-56120D03*
Y825500D03*
X-39120D03*
Y939800D03*
X-56120D03*
X-39120Y965200D03*
X-56120D03*
M02*
