G04 ================== begin FILE IDENTIFICATION RECORD ==================*
G04 Layout Name:  e:/ORCAD_sch/Other/TEST_UM/pcb/test-um_01v1.brd*
G04 Film Name:    SILK_TOP*
G04 File Format:  Gerber RS274X*
G04 File Origin:  Cadence Allegro 16.6-S003*
G04 Origin Date:  Tue Mar 05 10:06:57 2013*
G04 *
G04 Layer:  MANUFACTURING/AUTOSILK_TOP*
G04 *
G04 Offset:    (0.000 0.000)*
G04 Mirror:    No*
G04 Mode:      Positive*
G04 Rotation:  0*
G04 FullContactRelief:  No*
G04 UndefLineWidth:     0.150*
G04 ================== end FILE IDENTIFICATION RECORD ====================*
%FSLAX34Y34*MOMM*%
%IR0*IPPOS*OFA0.00000B0.00000*MIA0B0*SFA1.00000B1.00000*%
%ADD10C,.2*%
%ADD11C,.3*%
%ADD12C,.4*%
%ADD13C,.15*%
%ADD14C,.25*%
G75*
%LPD*%
G75*
G54D10*
G01X59200Y1115800D02*
Y1062800D01*
X-42050D01*
X-75800Y1096550D01*
Y1115800D01*
G01X59200Y1144800D02*
Y1197800D01*
X-42050D01*
X-75800Y1164050D01*
Y1144800D01*
G01X-96200Y2201700D02*
X-46200D01*
Y2161700D01*
X-66200Y2141700D01*
Y1311700D01*
X-46200Y1291700D01*
Y1251700D01*
X-96200D01*
G01X-62300Y1190300D02*
X-78300D01*
G01X38300Y-19600D02*
Y70400D01*
X-51700D01*
Y-19600D01*
X38300D01*
G01X-51000Y270420D02*
Y180420D01*
X39000D01*
Y270420D01*
X-51000D01*
G01X-49150Y438000D02*
Y451000D01*
G01X-65150Y438000D02*
Y451000D01*
G01X-49150Y495150D02*
Y508150D01*
G01X-65150Y495150D02*
Y508150D01*
G01X-5750Y557500D02*
Y553500D01*
X-57750D01*
Y557500D01*
G01X-5750Y614650D02*
Y610650D01*
X-57750D01*
Y614650D01*
G01X-5750Y642650D02*
Y646650D01*
X-57750D01*
Y642650D01*
G01X-5750Y585500D02*
Y589500D01*
X-57750D01*
Y585500D01*
G01X-70300Y1198300D02*
Y1182300D01*
G01X14850Y-55620D02*
X27850D01*
G01X14850Y-39620D02*
X27850D01*
G01X14850Y90420D02*
X27850D01*
G01X14850Y106420D02*
X27850D01*
G01X28100Y160400D02*
X18100D01*
G01X28100Y144400D02*
X18100D01*
G01X14850Y290450D02*
X27850D01*
G01X14850Y306450D02*
X27850D01*
G01X49150Y787550D02*
Y774550D01*
G01X65150Y787550D02*
Y774550D01*
G01X20580Y787550D02*
Y774550D01*
G01X36580Y787550D02*
Y774550D01*
G01X61880Y840900D02*
Y975900D01*
X4380D01*
Y840900D01*
X61880D01*
G01X15050Y1006350D02*
X23050D01*
G01X15050Y1038350D02*
X23050D01*
G01X71380Y1247920D02*
Y1234920D01*
G01X185100Y-80800D02*
X135100D01*
Y-40800D01*
X155100Y-20800D01*
Y809200D01*
X135100Y829200D01*
Y869200D01*
X185100D01*
G01X163000Y1196050D02*
Y1001050D01*
X91000D01*
Y1196050D01*
X163000D01*
G01X141520Y982720D02*
X131520D01*
G01X141520Y966720D02*
X131520D01*
G01X163000Y1035050D02*
X91000D01*
G01X185100Y1252700D02*
X135100D01*
Y1292700D01*
X155100Y1312700D01*
Y2142700D01*
X135100Y2162700D01*
Y2202700D01*
X185100D01*
G01X87380Y1247920D02*
Y1234920D01*
G01X99950Y1247920D02*
Y1234920D01*
G01X115950Y1247920D02*
Y1234920D01*
G54D11*
G01X-63000Y262920D02*
G03I-1500J5D01*
G01X53300Y-12100D02*
G03I-1500J0D01*
G54D12*
G01X78200Y839080D02*
G03I-2005J0D01*
G01X55940Y848620D02*
G03I-2005J0D01*
G54D13*
G01X-92080Y-42730D02*
X-79380Y-49480D01*
G01Y-42730D02*
X-92080Y-49480D01*
G01X-90600Y-56320D02*
X-91660Y-57450D01*
X-92080Y-58730D01*
X-91660Y-60020D01*
X-90390Y-61150D01*
X-88480Y-61950D01*
X-86580Y-62270D01*
X-84250D01*
X-82340Y-61950D01*
X-80650Y-61150D01*
X-79800Y-60180D01*
X-79380Y-59050D01*
X-79800Y-57770D01*
X-80650Y-56800D01*
X-81920Y-56160D01*
X-83610Y-55840D01*
X-85090Y-56160D01*
X-86580Y-56960D01*
X-87420Y-57930D01*
X-87640Y-59050D01*
X-87210Y-60340D01*
X-86150Y-61310D01*
X-84250Y-62270D01*
G01X-79380Y38360D02*
X-92080D01*
G01X-79380Y42050D02*
Y34660D01*
G01Y29430D02*
X-92080Y25410D01*
X-79380Y21380D01*
G01X-81500Y15510D02*
X-80230Y14550D01*
X-79590Y13420D01*
X-79380Y12130D01*
X-79800Y10520D01*
X-80860Y9400D01*
X-82130Y9080D01*
X-83400Y9240D01*
X-84460Y9880D01*
X-86580Y13100D01*
X-88060Y14550D01*
X-90180Y15510D01*
X-92080Y15830D01*
Y9080D01*
G01Y119200D02*
X-79380Y112450D01*
G01Y119200D02*
X-92080Y112450D01*
G01Y102880D02*
X-79380D01*
X-81920Y104810D01*
G01X-92080D02*
Y100950D01*
G01X-79380Y89930D02*
X-79800Y91210D01*
X-80860Y92180D01*
X-82130Y92820D01*
X-83830Y93300D01*
X-85730Y93460D01*
X-87640Y93300D01*
X-89330Y92820D01*
X-90600Y92180D01*
X-91660Y91210D01*
X-92080Y89930D01*
X-91660Y88640D01*
X-90600Y87670D01*
X-89330Y87030D01*
X-87640Y86550D01*
X-85730Y86390D01*
X-83830Y86550D01*
X-82130Y87030D01*
X-80860Y87670D01*
X-79800Y88640D01*
X-79380Y89930D01*
G01X-92080Y157300D02*
X-79380Y150550D01*
G01Y157300D02*
X-92080Y150550D01*
G01Y140980D02*
X-91870Y139850D01*
X-91230Y138560D01*
X-90180Y137760D01*
X-88690Y137440D01*
X-87210Y137760D01*
X-85940Y138720D01*
X-85310Y140170D01*
Y141780D01*
X-84880Y142740D01*
X-83830Y143550D01*
X-82340Y143870D01*
X-80860Y143390D01*
X-79800Y142260D01*
X-79380Y140980D01*
X-79800Y139690D01*
X-80860Y138560D01*
X-82340Y138080D01*
X-83830Y138400D01*
X-84880Y139210D01*
X-85310Y140170D01*
Y141780D01*
X-85940Y143230D01*
X-87210Y144190D01*
X-88690Y144510D01*
X-90180Y144190D01*
X-91230Y143390D01*
X-91870Y142100D01*
X-92080Y140980D01*
G01X-79380Y238380D02*
X-92080D01*
G01X-79380Y242070D02*
Y234680D01*
G01Y229450D02*
X-92080Y225430D01*
X-79380Y221400D01*
G01X-92080Y212480D02*
X-79380D01*
X-81920Y214410D01*
G01X-92080D02*
Y210550D01*
G01Y312870D02*
X-79380Y306120D01*
G01Y312870D02*
X-92080Y306120D01*
G01Y296870D02*
X-89330Y296550D01*
X-87000Y296060D01*
X-84880Y295420D01*
X-82560Y294610D01*
X-79380Y293330D01*
Y299760D01*
G01X-98420Y398600D02*
X-85720Y391850D01*
G01Y398600D02*
X-98420Y391850D01*
G01Y382280D02*
X-85720D01*
X-88260Y384210D01*
G01X-98420D02*
Y380350D01*
G01X-87840Y372380D02*
X-86570Y371420D01*
X-85930Y370290D01*
X-85720Y369000D01*
X-86140Y367390D01*
X-87200Y366270D01*
X-88470Y365950D01*
X-89740Y366110D01*
X-90800Y366750D01*
X-92920Y369970D01*
X-94400Y371420D01*
X-96520Y372380D01*
X-98420Y372700D01*
Y365950D01*
G01X-82550Y454190D02*
X-69850D01*
Y450170D01*
X-70490Y448880D01*
X-71330Y448080D01*
X-73030Y447760D01*
X-74720Y448080D01*
X-75780Y449040D01*
X-76410Y450170D01*
Y454190D01*
G01Y450170D02*
X-82550Y447760D01*
G01Y438030D02*
X-82340Y436900D01*
X-81700Y435610D01*
X-80650Y434810D01*
X-79160Y434490D01*
X-77680Y434810D01*
X-76410Y435770D01*
X-75780Y437220D01*
Y438830D01*
X-75350Y439790D01*
X-74300Y440600D01*
X-72810Y440920D01*
X-71330Y440440D01*
X-70270Y439310D01*
X-69850Y438030D01*
X-70270Y436740D01*
X-71330Y435610D01*
X-72810Y435130D01*
X-74300Y435450D01*
X-75350Y436260D01*
X-75780Y437220D01*
Y438830D01*
X-76410Y440280D01*
X-77680Y441240D01*
X-79160Y441560D01*
X-80650Y441240D01*
X-81700Y440440D01*
X-82340Y439150D01*
X-82550Y438030D01*
G01Y508170D02*
X-69850D01*
Y504150D01*
X-70490Y502860D01*
X-71330Y502060D01*
X-73030Y501740D01*
X-74720Y502060D01*
X-75780Y503020D01*
X-76410Y504150D01*
Y508170D01*
G01Y504150D02*
X-82550Y501740D01*
G01X-81070Y494740D02*
X-82130Y493610D01*
X-82550Y492330D01*
X-82130Y491040D01*
X-80860Y489910D01*
X-78950Y489110D01*
X-77050Y488790D01*
X-74720D01*
X-72810Y489110D01*
X-71120Y489910D01*
X-70270Y490880D01*
X-69850Y492010D01*
X-70270Y493290D01*
X-71120Y494260D01*
X-72390Y494900D01*
X-74080Y495220D01*
X-75560Y494900D01*
X-77050Y494100D01*
X-77890Y493130D01*
X-78110Y492010D01*
X-77680Y490720D01*
X-76620Y489750D01*
X-74720Y488790D01*
G01X-79140Y881590D02*
X-80100Y882230D01*
X-81230Y882650D01*
X-82510D01*
X-83960Y882010D01*
X-85090Y880960D01*
X-85890Y879690D01*
X-86540Y877570D01*
X-86700Y875660D01*
X-86370Y873760D01*
X-85890Y872490D01*
X-84930Y871220D01*
X-83800Y870370D01*
X-82680Y869950D01*
X-81550D01*
X-80420Y870370D01*
X-79460Y871010D01*
X-78650Y871850D01*
G01X-73260D02*
X-72300Y870800D01*
X-71170Y870160D01*
X-69730Y869950D01*
X-68280Y870370D01*
X-67150Y871220D01*
X-66350Y872700D01*
X-66190Y874390D01*
X-66510Y876090D01*
X-67310Y877150D01*
X-68440Y877990D01*
X-69560Y878200D01*
X-70690Y877990D01*
X-72140Y877150D01*
X-71660Y882650D01*
X-67310D01*
G01X-79140Y856190D02*
X-80100Y856830D01*
X-81230Y857250D01*
X-82510D01*
X-83960Y856610D01*
X-85090Y855560D01*
X-85890Y854290D01*
X-86540Y852170D01*
X-86700Y850260D01*
X-86370Y848360D01*
X-85890Y847090D01*
X-84930Y845820D01*
X-83800Y844970D01*
X-82680Y844550D01*
X-81550D01*
X-80420Y844970D01*
X-79460Y845610D01*
X-78650Y846450D01*
G01X-69730Y844550D02*
X-68600Y844760D01*
X-67310Y845400D01*
X-66510Y846450D01*
X-66190Y847940D01*
X-66510Y849420D01*
X-67470Y850690D01*
X-68920Y851320D01*
X-70530D01*
X-71490Y851750D01*
X-72300Y852800D01*
X-72620Y854290D01*
X-72140Y855770D01*
X-71010Y856830D01*
X-69730Y857250D01*
X-68440Y856830D01*
X-67310Y855770D01*
X-66830Y854290D01*
X-67150Y852800D01*
X-67960Y851750D01*
X-68920Y851320D01*
X-70530D01*
X-71980Y850690D01*
X-72940Y849420D01*
X-73260Y847940D01*
X-72940Y846450D01*
X-72140Y845400D01*
X-70850Y844760D01*
X-69730Y844550D01*
G01X-79140Y830790D02*
X-80100Y831430D01*
X-81230Y831850D01*
X-82510D01*
X-83960Y831210D01*
X-85090Y830160D01*
X-85890Y828890D01*
X-86540Y826770D01*
X-86700Y824860D01*
X-86370Y822960D01*
X-85890Y821690D01*
X-84930Y820420D01*
X-83800Y819570D01*
X-82680Y819150D01*
X-81550D01*
X-80420Y819570D01*
X-79460Y820210D01*
X-78650Y821050D01*
G01X-72460Y820630D02*
X-71330Y819570D01*
X-70050Y819150D01*
X-68760Y819570D01*
X-67630Y820840D01*
X-66830Y822750D01*
X-66510Y824650D01*
Y826980D01*
X-66830Y828890D01*
X-67630Y830580D01*
X-68600Y831430D01*
X-69730Y831850D01*
X-71010Y831430D01*
X-71980Y830580D01*
X-72620Y829310D01*
X-72940Y827620D01*
X-72620Y826140D01*
X-71820Y824650D01*
X-70850Y823810D01*
X-69730Y823590D01*
X-68440Y824020D01*
X-67470Y825080D01*
X-66510Y826980D01*
G01X-79140Y945090D02*
X-80100Y945730D01*
X-81230Y946150D01*
X-82510D01*
X-83960Y945510D01*
X-85090Y944460D01*
X-85890Y943190D01*
X-86540Y941070D01*
X-86700Y939160D01*
X-86370Y937260D01*
X-85890Y935990D01*
X-84930Y934720D01*
X-83800Y933870D01*
X-82680Y933450D01*
X-81550D01*
X-80420Y933870D01*
X-79460Y934510D01*
X-78650Y935350D01*
G01X-67790Y933450D02*
Y946150D01*
X-73750Y937050D01*
X-65700D01*
G01X-79140Y970490D02*
X-80100Y971130D01*
X-81230Y971550D01*
X-82510D01*
X-83960Y970910D01*
X-85090Y969860D01*
X-85890Y968590D01*
X-86540Y966470D01*
X-86700Y964560D01*
X-86370Y962660D01*
X-85890Y961390D01*
X-84930Y960120D01*
X-83800Y959270D01*
X-82680Y958850D01*
X-81550D01*
X-80420Y959270D01*
X-79460Y959910D01*
X-78650Y960750D01*
G01X-70050Y958850D02*
X-69730Y961600D01*
X-69240Y963930D01*
X-68600Y966050D01*
X-67790Y968370D01*
X-66510Y971550D01*
X-72940D01*
G01X-78740Y1041400D02*
Y1054100D01*
X-74560Y1043520D01*
X-70370Y1054100D01*
Y1041400D01*
G01X-64980D02*
Y1054100D01*
G01X-58230D02*
Y1041400D01*
G01Y1047750D02*
X-64980D01*
G01X-48660Y1041400D02*
Y1054100D01*
X-50590Y1051560D01*
G01Y1041400D02*
X-46730D01*
G01X-79700Y2205570D02*
X-72950Y2218270D01*
G01X-79700D02*
X-72950Y2205570D01*
G01X-66910Y2208110D02*
X-65950Y2206630D01*
X-64660Y2205780D01*
X-63210Y2205570D01*
X-61930Y2205780D01*
X-60640Y2206840D01*
X-59840Y2208110D01*
X-59680Y2209380D01*
X-60000Y2210860D01*
X-61120Y2211920D01*
X-62250Y2212340D01*
X-63700D01*
G01X-62250D02*
X-61280Y2212980D01*
X-60480Y2214040D01*
X-60160Y2215310D01*
X-60480Y2216580D01*
X-61280Y2217630D01*
X-62730Y2218270D01*
X-64180Y2218060D01*
X-65630Y2217210D01*
G01X3410Y138640D02*
X2450Y139280D01*
X1320Y139700D01*
X40D01*
X-1410Y139060D01*
X-2540Y138010D01*
X-3340Y136740D01*
X-3990Y134620D01*
X-4150Y132710D01*
X-3820Y130810D01*
X-3340Y129540D01*
X-2380Y128270D01*
X-1250Y127420D01*
X-130Y127000D01*
X1000D01*
X2130Y127420D01*
X3090Y128060D01*
X3900Y128900D01*
G01X9290Y129540D02*
X10250Y128060D01*
X11540Y127210D01*
X12990Y127000D01*
X14270Y127210D01*
X15560Y128270D01*
X16360Y129540D01*
X16520Y130810D01*
X16200Y132290D01*
X15080Y133350D01*
X13950Y133770D01*
X12500D01*
G01X13950D02*
X14920Y134410D01*
X15720Y135470D01*
X16040Y136740D01*
X15720Y138010D01*
X14920Y139060D01*
X13470Y139700D01*
X12020Y139490D01*
X10570Y138640D01*
G01X3180Y722450D02*
X15880Y715700D01*
G01Y722450D02*
X3180Y715700D01*
G01Y706130D02*
X15880D01*
X13340Y708060D01*
G01X3180D02*
Y704200D01*
G01Y693180D02*
X15880D01*
X13340Y695110D01*
G01X3180D02*
Y691250D01*
G01X-47620Y880300D02*
Y872300D01*
G01Y846900D02*
Y854900D01*
G01Y829500D02*
Y821500D01*
G01Y935800D02*
Y943800D01*
G01Y961200D02*
Y969200D01*
G01X-3690Y1055700D02*
Y1043000D01*
X2740D01*
G01X12470D02*
Y1055700D01*
X10540Y1053160D01*
G01Y1043000D02*
X14400D01*
G01X-15880Y1255850D02*
X-3180Y1249100D01*
G01Y1255850D02*
X-15880Y1249100D01*
G01X-13980Y1243060D02*
X-15030Y1242100D01*
X-15670Y1240970D01*
X-15880Y1239530D01*
X-15460Y1238080D01*
X-14610Y1236950D01*
X-13130Y1236150D01*
X-11440Y1235990D01*
X-9740Y1236310D01*
X-8680Y1237110D01*
X-7840Y1238240D01*
X-7630Y1239360D01*
X-7840Y1240490D01*
X-8680Y1241940D01*
X-3180Y1241460D01*
Y1237110D01*
G01X-31940Y1213640D02*
X-32900Y1214280D01*
X-34030Y1214700D01*
X-35310D01*
X-36760Y1214060D01*
X-37890Y1213010D01*
X-38690Y1211740D01*
X-39340Y1209620D01*
X-39500Y1207710D01*
X-39170Y1205810D01*
X-38690Y1204540D01*
X-37730Y1203270D01*
X-36600Y1202420D01*
X-35480Y1202000D01*
X-34350D01*
X-33220Y1202420D01*
X-32260Y1203060D01*
X-31450Y1203900D01*
G01X-22530Y1202000D02*
Y1214700D01*
X-24460Y1212160D01*
G01Y1202000D02*
X-20600D01*
G01X47460Y-53980D02*
Y-41280D01*
X51480D01*
X52770Y-41920D01*
X53570Y-42760D01*
X53890Y-44460D01*
X53570Y-46150D01*
X52610Y-47210D01*
X51480Y-47840D01*
X47460D01*
G01X51480D02*
X53890Y-53980D01*
G01X60090Y-52080D02*
X61050Y-53130D01*
X62180Y-53770D01*
X63620Y-53980D01*
X65070Y-53560D01*
X66200Y-52710D01*
X67000Y-51230D01*
X67160Y-49540D01*
X66840Y-47840D01*
X66040Y-46780D01*
X64910Y-45940D01*
X63790Y-45730D01*
X62660Y-45940D01*
X61210Y-46780D01*
X61690Y-41280D01*
X66040D01*
G01X31590Y111120D02*
Y123820D01*
X35610D01*
X36900Y123180D01*
X37700Y122340D01*
X38020Y120640D01*
X37700Y118950D01*
X36740Y117890D01*
X35610Y117260D01*
X31590D01*
G01X35610D02*
X38020Y111120D01*
G01X44700Y116410D02*
X45820Y117890D01*
X46790Y118740D01*
X48080Y119160D01*
X49200Y118740D01*
X50010Y117890D01*
X50650Y116620D01*
X50810Y115140D01*
X50650Y113870D01*
X50010Y112600D01*
X49040Y111540D01*
X47920Y111120D01*
X46630Y111540D01*
X45500Y112810D01*
X44860Y114720D01*
X44700Y116830D01*
X45020Y119590D01*
X45500Y121070D01*
X46310Y122550D01*
X47430Y123610D01*
X48560Y123820D01*
X49690Y123400D01*
X50490Y122340D01*
G01X12530Y311150D02*
Y323850D01*
X16550D01*
X17840Y323210D01*
X18640Y322370D01*
X18960Y320670D01*
X18640Y318980D01*
X17680Y317920D01*
X16550Y317290D01*
X12530D01*
G01X16550D02*
X18960Y311150D01*
G01X30630D02*
Y323850D01*
X24670Y314750D01*
X32720D01*
G01X17330Y536580D02*
X24080Y549280D01*
G01X17330D02*
X24080Y536580D01*
G01X30600Y541870D02*
X31720Y543350D01*
X32690Y544200D01*
X33980Y544620D01*
X35100Y544200D01*
X35910Y543350D01*
X36550Y542080D01*
X36710Y540600D01*
X36550Y539330D01*
X35910Y538060D01*
X34940Y537000D01*
X33820Y536580D01*
X32530Y537000D01*
X31400Y538270D01*
X30760Y540180D01*
X30600Y542290D01*
X30920Y545050D01*
X31400Y546530D01*
X32210Y548010D01*
X33330Y549070D01*
X34460Y549280D01*
X35590Y548860D01*
X36390Y547800D01*
G01X5230Y577850D02*
X9250Y565150D01*
X13280Y577850D01*
G01X18670Y565150D02*
Y577850D01*
X21880D01*
X23170Y577210D01*
X24140Y576370D01*
X24940Y575100D01*
X25580Y573620D01*
X25740Y571500D01*
X25580Y569380D01*
X24940Y567900D01*
X24140Y566630D01*
X23170Y565780D01*
X21880Y565150D01*
X18670D01*
G01X37090D02*
Y577850D01*
X31130Y568750D01*
X39180D01*
G01X5230Y635000D02*
X9250Y622300D01*
X13280Y635000D01*
G01X18670Y622300D02*
Y635000D01*
X21880D01*
X23170Y634360D01*
X24140Y633520D01*
X24940Y632250D01*
X25580Y630770D01*
X25740Y628650D01*
X25580Y626530D01*
X24940Y625050D01*
X24140Y623780D01*
X23170Y622930D01*
X21880Y622300D01*
X18670D01*
G01X31620Y624840D02*
X32580Y623360D01*
X33870Y622510D01*
X35320Y622300D01*
X36600Y622510D01*
X37890Y623570D01*
X38690Y624840D01*
X38850Y626110D01*
X38530Y627590D01*
X37410Y628650D01*
X36280Y629070D01*
X34830D01*
G01X36280D02*
X37250Y629710D01*
X38050Y630770D01*
X38370Y632040D01*
X38050Y633310D01*
X37250Y634360D01*
X35800Y635000D01*
X34350Y634790D01*
X32900Y633940D01*
G01X54310Y804000D02*
Y816700D01*
X58330D01*
X59620Y816060D01*
X60420Y815220D01*
X60740Y813520D01*
X60420Y811830D01*
X59460Y810770D01*
X58330Y810140D01*
X54310D01*
G01X58330D02*
X60740Y804000D01*
G01X70150D02*
X70470Y806750D01*
X70960Y809080D01*
X71600Y811200D01*
X72410Y813520D01*
X73690Y816700D01*
X67260D01*
G01X12820Y805000D02*
Y817700D01*
X16840D01*
X18130Y817060D01*
X18930Y816220D01*
X19250Y814520D01*
X18930Y812830D01*
X17970Y811770D01*
X16840Y811140D01*
X12820D01*
G01X16840D02*
X19250Y805000D01*
G01X28980D02*
Y817700D01*
X27050Y815160D01*
G01Y805000D02*
X30910D01*
G01X41930Y817700D02*
X40650Y817280D01*
X39680Y816220D01*
X39040Y814950D01*
X38560Y813250D01*
X38400Y811350D01*
X38560Y809440D01*
X39040Y807750D01*
X39680Y806480D01*
X40650Y805420D01*
X41930Y805000D01*
X43220Y805420D01*
X44190Y806480D01*
X44830Y807750D01*
X45310Y809440D01*
X45470Y811350D01*
X45310Y813250D01*
X44830Y814950D01*
X44190Y816220D01*
X43220Y817280D01*
X41930Y817700D01*
G01X17170Y981080D02*
Y993780D01*
X20380D01*
X21670Y993140D01*
X22640Y992300D01*
X23440Y991030D01*
X24080Y989550D01*
X24240Y987430D01*
X24080Y985310D01*
X23440Y983830D01*
X22640Y982560D01*
X21670Y981710D01*
X20380Y981080D01*
X17170D01*
G01X30120D02*
Y993780D01*
X33330D01*
X34620Y993140D01*
X35590Y992300D01*
X36390Y991030D01*
X37030Y989550D01*
X37190Y987430D01*
X37030Y985310D01*
X36390Y983830D01*
X35590Y982560D01*
X34620Y981710D01*
X33330Y981080D01*
X30120D01*
G01X46600D02*
Y993780D01*
X44670Y991240D01*
G01Y981080D02*
X48530D01*
G01X53980Y1251110D02*
X66680D01*
Y1247090D01*
X66040Y1245800D01*
X65200Y1245000D01*
X63500Y1244680D01*
X61810Y1245000D01*
X60750Y1245960D01*
X60120Y1247090D01*
Y1251110D01*
G01Y1247090D02*
X53980Y1244680D01*
G01Y1234950D02*
X66680D01*
X64140Y1236880D01*
G01X53980D02*
Y1233020D01*
G01X152070Y873120D02*
X158820Y885820D01*
G01X152070D02*
X158820Y873120D01*
G01X165340Y883700D02*
X166300Y884970D01*
X167430Y885610D01*
X168720Y885820D01*
X170330Y885400D01*
X171450Y884340D01*
X171770Y883070D01*
X171610Y881800D01*
X170970Y880740D01*
X167750Y878620D01*
X166300Y877140D01*
X165340Y875020D01*
X165020Y873120D01*
X171770D01*
G01X116060Y921640D02*
X115100Y922280D01*
X113970Y922700D01*
X112690D01*
X111240Y922060D01*
X110110Y921010D01*
X109310Y919740D01*
X108660Y917620D01*
X108500Y915710D01*
X108830Y913810D01*
X109310Y912540D01*
X110270Y911270D01*
X111400Y910420D01*
X112520Y910000D01*
X113650D01*
X114780Y910420D01*
X115740Y911060D01*
X116550Y911900D01*
G01X122420Y915290D02*
X123540Y916770D01*
X124510Y917620D01*
X125800Y918040D01*
X126920Y917620D01*
X127730Y916770D01*
X128370Y915500D01*
X128530Y914020D01*
X128370Y912750D01*
X127730Y911480D01*
X126760Y910420D01*
X125640Y910000D01*
X124350Y910420D01*
X123220Y911690D01*
X122580Y913600D01*
X122420Y915710D01*
X122740Y918470D01*
X123220Y919950D01*
X124030Y921430D01*
X125150Y922490D01*
X126280Y922700D01*
X127410Y922280D01*
X128210Y921220D01*
G01X118300Y892180D02*
X110300D01*
G01X136760Y960960D02*
X135800Y961600D01*
X134670Y962020D01*
X133390D01*
X131940Y961380D01*
X130810Y960330D01*
X130010Y959060D01*
X129360Y956940D01*
X129200Y955030D01*
X129530Y953130D01*
X130010Y951860D01*
X130970Y950590D01*
X132100Y949740D01*
X133220Y949320D01*
X134350D01*
X135480Y949740D01*
X136440Y950380D01*
X137250Y951220D01*
G01X143120Y959900D02*
X144080Y961170D01*
X145210Y961810D01*
X146500Y962020D01*
X148110Y961600D01*
X149230Y960540D01*
X149550Y959270D01*
X149390Y958000D01*
X148750Y956940D01*
X145530Y954820D01*
X144080Y953340D01*
X143120Y951220D01*
X142800Y949320D01*
X149550D01*
G01X120650Y1247940D02*
X133350D01*
Y1243920D01*
X132710Y1242630D01*
X131870Y1241830D01*
X130170Y1241510D01*
X128480Y1241830D01*
X127420Y1242790D01*
X126790Y1243920D01*
Y1247940D01*
G01Y1243920D02*
X120650Y1241510D01*
G01X131230Y1234830D02*
X132500Y1233870D01*
X133140Y1232740D01*
X133350Y1231450D01*
X132930Y1229840D01*
X131870Y1228720D01*
X130600Y1228400D01*
X129330Y1228560D01*
X128270Y1229200D01*
X126150Y1232420D01*
X124670Y1233870D01*
X122550Y1234830D01*
X120650Y1235150D01*
Y1228400D01*
G01X123200Y1200150D02*
Y1212850D01*
X126410D01*
X127700Y1212210D01*
X128670Y1211370D01*
X129470Y1210100D01*
X130110Y1208620D01*
X130270Y1206500D01*
X130110Y1204380D01*
X129470Y1202900D01*
X128670Y1201630D01*
X127700Y1200780D01*
X126410Y1200150D01*
X123200D01*
G01X135660D02*
X139680Y1212850D01*
X143710Y1200150D01*
G01X142260Y1204590D02*
X137110D01*
G01X152630Y1200150D02*
Y1212850D01*
X150700Y1210310D01*
G01Y1200150D02*
X154560D01*
G01X148900Y2206620D02*
X155650Y2219320D01*
G01X148900D02*
X155650Y2206620D01*
G01X165220D02*
Y2219320D01*
X163290Y2216780D01*
G01Y2206620D02*
X167150D01*
G54D14*
G01X-14450Y-35800D02*
Y-65800D01*
X-74450D01*
Y-35800D01*
X-14450D01*
G01Y116600D02*
Y86600D01*
X-74450D01*
Y116600D01*
X-14450D01*
G01Y164220D02*
Y134220D01*
X-74450D01*
Y164220D01*
X-14450D01*
G01Y316620D02*
Y286620D01*
X-74450D01*
Y316620D01*
X-14450D01*
G01X-81680Y411000D02*
X-51680D01*
Y351000D01*
X-81680D01*
Y411000D01*
G01X-83750Y571500D02*
X-67750D01*
G01X-75750Y563500D02*
Y579500D01*
G01X-83750Y628650D02*
X-67750D01*
G01X-75750Y620650D02*
Y636650D01*
G01X-79550Y1146300D02*
G03X-80800Y1147550I-1250J0D01*
G01D02*
G03X-82050Y1146300I0J-1250D01*
G01D02*
G03X-80800Y1145050I1250J0D01*
G01D02*
G03X-79550Y1146300I0J1250D01*
G01X57500Y532600D02*
Y330100D01*
X-32500D01*
Y532600D01*
X57500D01*
G01X52500Y527600D02*
Y335100D01*
X-27500D01*
Y527600D01*
X52500D01*
G01X-32500Y412600D02*
X-27500D01*
G01X-32500Y450100D02*
X-27500D01*
G01X30880Y1217780D02*
X880D01*
Y1277780D01*
X30880D01*
Y1217780D01*
G01X19920Y738020D02*
X49920D01*
Y678020D01*
X19920D01*
Y738020D01*
G01X86700Y1022350D02*
G03I-1250J0D01*
M02*
