G04 ================== begin FILE IDENTIFICATION RECORD ==================*
G04 Layout Name:  E:/ORCAD_sch/Other/TEST-UM_01v1/pcb/test-um_01v1.brd*
G04 Film Name:    SILK_TOP*
G04 File Format:  Gerber RS274X*
G04 File Origin:  Cadence Allegro 16.6-S009*
G04 Origin Date:  Thu May 16 11:03:18 2013*
G04 *
G04 Layer:  MANUFACTURING/AUTOSILK_TOP*
G04 *
G04 Offset:    (0.000 0.000)*
G04 Mirror:    No*
G04 Mode:      Positive*
G04 Rotation:  0*
G04 FullContactRelief:  No*
G04 UndefLineWidth:     0.150*
G04 ================== end FILE IDENTIFICATION RECORD ====================*
%FSLAX34Y34*MOMM*%
%IR0*IPPOS*OFA0.00000B0.00000*MIA0B0*SFA1.00000B1.00000*%
%ADD10C,.2*%
%ADD11C,.3*%
%ADD12C,.4*%
%ADD13C,.15*%
%ADD14C,.25*%
G75*
%LPD*%
G75*
G54D10*
G01X59200Y1115800D02*
Y1062800D01*
X-42050D01*
X-75800Y1096550D01*
Y1115800D01*
G01X59200Y1144800D02*
Y1197800D01*
X-42050D01*
X-75800Y1164050D01*
Y1144800D01*
G01X-96200Y2201700D02*
X-46200D01*
Y2161700D01*
X-66200Y2141700D01*
Y1311700D01*
X-46200Y1291700D01*
Y1251700D01*
X-96200D01*
G01X-62300Y1190300D02*
X-78300D01*
G01X38300Y-19600D02*
Y70400D01*
X-51700D01*
Y-19600D01*
X38300D01*
G01X-51000Y270420D02*
Y180420D01*
X39000D01*
Y270420D01*
X-51000D01*
G01X-49150Y438000D02*
Y451000D01*
G01X-65150Y438000D02*
Y451000D01*
G01X-49150Y495150D02*
Y508150D01*
G01X-65150Y495150D02*
Y508150D01*
G01X-57800Y558400D02*
Y554400D01*
X-5800D01*
Y558400D01*
G01X-57800Y643640D02*
Y647640D01*
X-5800D01*
Y643640D01*
G01X-57800Y615640D02*
Y611640D01*
X-5800D01*
Y615640D01*
G01X-57800Y586400D02*
Y590400D01*
X-5800D01*
Y586400D01*
G01X-20000Y1022000D02*
Y1032000D01*
G01X-36000Y1022000D02*
Y1032000D01*
G01X-70300Y1198300D02*
Y1182300D01*
G01X14850Y-55620D02*
X27850D01*
G01X14850Y-39620D02*
X27850D01*
G01X14850Y90420D02*
X27850D01*
G01X14850Y106420D02*
X27850D01*
G01X28100Y160400D02*
X18100D01*
G01X28100Y144400D02*
X18100D01*
G01X14850Y290450D02*
X27850D01*
G01X14850Y306450D02*
X27850D01*
G01X49150Y787550D02*
Y774550D01*
G01X65150Y787550D02*
Y774550D01*
G01X20580Y787550D02*
Y774550D01*
G01X36580Y787550D02*
Y774550D01*
G01X61880Y840900D02*
Y975900D01*
X4380D01*
Y840900D01*
X61880D01*
G01X15050Y1006350D02*
X23050D01*
G01X15050Y1038350D02*
X23050D01*
G01X71380Y1247920D02*
Y1234920D01*
G01X48000Y2176500D02*
Y2163500D01*
G01X64000Y2176500D02*
Y2163500D01*
G01X26000Y2161000D02*
Y2163000D01*
G01X34000Y2161000D02*
Y2163000D01*
G01X185100Y-80800D02*
X135100D01*
Y-40800D01*
X155100Y-20800D01*
Y809200D01*
X135100Y829200D01*
Y869200D01*
X185100D01*
G01X143500Y952000D02*
X130500D01*
G01X143500Y936000D02*
X130500D01*
G01X128000Y924000D02*
X130000D01*
G01X128000Y916000D02*
X130000D01*
G01X163000Y1196050D02*
Y1001050D01*
X91000D01*
Y1196050D01*
X163000D01*
G01X141520Y982720D02*
X131520D01*
G01X141520Y966720D02*
X131520D01*
G01X163000Y1035050D02*
X91000D01*
G01X185100Y1252700D02*
X135100D01*
Y1292700D01*
X155100Y1312700D01*
Y2142700D01*
X135100Y2162700D01*
Y2202700D01*
X185100D01*
G01X87380Y1247920D02*
Y1234920D01*
G01X99950Y1247920D02*
Y1234920D01*
G01X115950Y1247920D02*
Y1234920D01*
G54D11*
G01X-63000Y262920D02*
G03I-1500J5D01*
G01X53300Y-12100D02*
G03I-1500J0D01*
G54D12*
G01X78200Y839080D02*
G03I-2005J0D01*
G01X55940Y848620D02*
G03I-2005J0D01*
G54D13*
G01X-100550Y-58000D02*
X-93800Y-45300D01*
G01X-100550D02*
X-93800Y-58000D01*
G01X-86960Y-56520D02*
X-85830Y-57580D01*
X-84550Y-58000D01*
X-83260Y-57580D01*
X-82130Y-56310D01*
X-81330Y-54400D01*
X-81010Y-52500D01*
Y-50170D01*
X-81330Y-48260D01*
X-82130Y-46570D01*
X-83100Y-45720D01*
X-84230Y-45300D01*
X-85510Y-45720D01*
X-86480Y-46570D01*
X-87120Y-47840D01*
X-87440Y-49530D01*
X-87120Y-51010D01*
X-86320Y-52500D01*
X-85350Y-53340D01*
X-84230Y-53560D01*
X-82940Y-53130D01*
X-81970Y-52070D01*
X-81010Y-50170D01*
G01X-96000Y37180D02*
X-95790Y38460D01*
X-94940Y39590D01*
X-93670Y40550D01*
X-92190Y41200D01*
X-90500Y41520D01*
X-88800D01*
X-87110Y41200D01*
X-85630Y40550D01*
X-84360Y39590D01*
X-83510Y38460D01*
X-83300Y37180D01*
X-83510Y35890D01*
X-84360Y34760D01*
X-85630Y33800D01*
X-87110Y33150D01*
X-88800Y32830D01*
X-90500D01*
X-92190Y33150D01*
X-93670Y33800D01*
X-94940Y34760D01*
X-95790Y35890D01*
X-96000Y37180D01*
G01X-83300Y27760D02*
X-92400D01*
X-94310Y27120D01*
X-95580Y25830D01*
X-96000Y24230D01*
X-95580Y22620D01*
X-94310Y21330D01*
X-92400Y20690D01*
X-83300D01*
G01Y11280D02*
X-96000D01*
G01X-83300Y14970D02*
Y7580D01*
G01X-96550Y70000D02*
X-89800Y82700D01*
G01X-96550D02*
X-89800Y70000D01*
G01X-80230D02*
Y82700D01*
X-82160Y80160D01*
G01Y70000D02*
X-78300D01*
G01X-67280Y82700D02*
X-68560Y82280D01*
X-69530Y81220D01*
X-70170Y79950D01*
X-70650Y78250D01*
X-70810Y76350D01*
X-70650Y74440D01*
X-70170Y72750D01*
X-69530Y71480D01*
X-68560Y70420D01*
X-67280Y70000D01*
X-65990Y70420D01*
X-65020Y71480D01*
X-64380Y72750D01*
X-63900Y74440D01*
X-63740Y76350D01*
X-63900Y78250D01*
X-64380Y79950D01*
X-65020Y81220D01*
X-65990Y82280D01*
X-67280Y82700D01*
G01X-100550Y144000D02*
X-93800Y156700D01*
G01X-100550D02*
X-93800Y144000D01*
G01X-84230D02*
X-83100Y144210D01*
X-81810Y144850D01*
X-81010Y145900D01*
X-80690Y147390D01*
X-81010Y148870D01*
X-81970Y150140D01*
X-83420Y150770D01*
X-85030D01*
X-85990Y151200D01*
X-86800Y152250D01*
X-87120Y153740D01*
X-86640Y155220D01*
X-85510Y156280D01*
X-84230Y156700D01*
X-82940Y156280D01*
X-81810Y155220D01*
X-81330Y153740D01*
X-81650Y152250D01*
X-82460Y151200D01*
X-83420Y150770D01*
X-85030D01*
X-86480Y150140D01*
X-87440Y148870D01*
X-87760Y147390D01*
X-87440Y145900D01*
X-86640Y144850D01*
X-85350Y144210D01*
X-84230Y144000D01*
G01X-83300Y233110D02*
Y229250D01*
G01Y231180D02*
X-96000D01*
G01Y233110D02*
Y229250D01*
G01Y221920D02*
X-83300D01*
X-96000Y214530D01*
X-83300D01*
G01X-100550Y294000D02*
X-93800Y306700D01*
G01X-100550D02*
X-93800Y294000D01*
G01X-84550D02*
X-84230Y296750D01*
X-83740Y299080D01*
X-83100Y301200D01*
X-82290Y303520D01*
X-81010Y306700D01*
X-87440D01*
G01X-86210Y340350D02*
X-82990D01*
Y336540D01*
X-83960Y335270D01*
X-85080Y334420D01*
X-86690Y334000D01*
X-88300Y334420D01*
X-89430Y335270D01*
X-90390Y336540D01*
X-91040Y338020D01*
X-91360Y339710D01*
Y341200D01*
X-91040Y342470D01*
X-90390Y343950D01*
X-89430Y345220D01*
X-88460Y346060D01*
X-87180Y346700D01*
X-86050D01*
X-84760Y346280D01*
X-83800Y345430D01*
G01X-77920Y334000D02*
Y346700D01*
X-70530Y334000D01*
Y346700D01*
G01X-64810Y334000D02*
Y346700D01*
X-61600D01*
X-60310Y346060D01*
X-59340Y345220D01*
X-58540Y343950D01*
X-57900Y342470D01*
X-57740Y340350D01*
X-57900Y338230D01*
X-58540Y336750D01*
X-59340Y335480D01*
X-60310Y334630D01*
X-61600Y334000D01*
X-64810D01*
G01X-45110D02*
X-51540D01*
Y346700D01*
X-45110D01*
G01X-47680Y340560D02*
X-51540D01*
G01X-98000Y398550D02*
X-85300Y391800D01*
G01Y398550D02*
X-98000Y391800D01*
G01Y382230D02*
X-85300D01*
X-87840Y384160D01*
G01X-98000D02*
Y380300D01*
G01X-87420Y372330D02*
X-86150Y371370D01*
X-85510Y370240D01*
X-85300Y368950D01*
X-85720Y367340D01*
X-86780Y366220D01*
X-88050Y365900D01*
X-89320Y366060D01*
X-90380Y366700D01*
X-92500Y369920D01*
X-93980Y371370D01*
X-96100Y372330D01*
X-98000Y372650D01*
Y365900D01*
G01X-82550Y454190D02*
X-69850D01*
Y450170D01*
X-70490Y448880D01*
X-71330Y448080D01*
X-73030Y447760D01*
X-74720Y448080D01*
X-75780Y449040D01*
X-76410Y450170D01*
Y454190D01*
G01Y450170D02*
X-82550Y447760D01*
G01Y438030D02*
X-82340Y436900D01*
X-81700Y435610D01*
X-80650Y434810D01*
X-79160Y434490D01*
X-77680Y434810D01*
X-76410Y435770D01*
X-75780Y437220D01*
Y438830D01*
X-75350Y439790D01*
X-74300Y440600D01*
X-72810Y440920D01*
X-71330Y440440D01*
X-70270Y439310D01*
X-69850Y438030D01*
X-70270Y436740D01*
X-71330Y435610D01*
X-72810Y435130D01*
X-74300Y435450D01*
X-75350Y436260D01*
X-75780Y437220D01*
Y438830D01*
X-76410Y440280D01*
X-77680Y441240D01*
X-79160Y441560D01*
X-80650Y441240D01*
X-81700Y440440D01*
X-82340Y439150D01*
X-82550Y438030D01*
G01Y508170D02*
X-69850D01*
Y504150D01*
X-70490Y502860D01*
X-71330Y502060D01*
X-73030Y501740D01*
X-74720Y502060D01*
X-75780Y503020D01*
X-76410Y504150D01*
Y508170D01*
G01Y504150D02*
X-82550Y501740D01*
G01X-81070Y494740D02*
X-82130Y493610D01*
X-82550Y492330D01*
X-82130Y491040D01*
X-80860Y489910D01*
X-78950Y489110D01*
X-77050Y488790D01*
X-74720D01*
X-72810Y489110D01*
X-71120Y489910D01*
X-70270Y490880D01*
X-69850Y492010D01*
X-70270Y493290D01*
X-71120Y494260D01*
X-72390Y494900D01*
X-74080Y495220D01*
X-75560Y494900D01*
X-77050Y494100D01*
X-77890Y493130D01*
X-78110Y492010D01*
X-77680Y490720D01*
X-76620Y489750D01*
X-74720Y488790D01*
G01X-96490Y658240D02*
X-92470Y645540D01*
X-88440Y658240D01*
G01X-83050Y645540D02*
Y658240D01*
X-79840D01*
X-78550Y657600D01*
X-77580Y656760D01*
X-76780Y655490D01*
X-76140Y654010D01*
X-75980Y651890D01*
X-76140Y649770D01*
X-76780Y648290D01*
X-77580Y647020D01*
X-78550Y646170D01*
X-79840Y645540D01*
X-83050D01*
G01X-70100Y648080D02*
X-69140Y646600D01*
X-67850Y645750D01*
X-66400Y645540D01*
X-65120Y645750D01*
X-63830Y646810D01*
X-63030Y648080D01*
X-62870Y649350D01*
X-63190Y650830D01*
X-64310Y651890D01*
X-65440Y652310D01*
X-66890D01*
G01X-65440D02*
X-64470Y652950D01*
X-63670Y654010D01*
X-63350Y655280D01*
X-63670Y656550D01*
X-64470Y657600D01*
X-65920Y658240D01*
X-67370Y658030D01*
X-68820Y657180D01*
G01X-96490Y601000D02*
X-92470Y588300D01*
X-88440Y601000D01*
G01X-83050Y588300D02*
Y601000D01*
X-79840D01*
X-78550Y600360D01*
X-77580Y599520D01*
X-76780Y598250D01*
X-76140Y596770D01*
X-75980Y594650D01*
X-76140Y592530D01*
X-76780Y591050D01*
X-77580Y589780D01*
X-78550Y588930D01*
X-79840Y588300D01*
X-83050D01*
G01X-64630D02*
Y601000D01*
X-70590Y591900D01*
X-62540D01*
G01X-79140Y881590D02*
X-80100Y882230D01*
X-81230Y882650D01*
X-82510D01*
X-83960Y882010D01*
X-85090Y880960D01*
X-85890Y879690D01*
X-86540Y877570D01*
X-86700Y875660D01*
X-86370Y873760D01*
X-85890Y872490D01*
X-84930Y871220D01*
X-83800Y870370D01*
X-82680Y869950D01*
X-81550D01*
X-80420Y870370D01*
X-79460Y871010D01*
X-78650Y871850D01*
G01X-73260D02*
X-72300Y870800D01*
X-71170Y870160D01*
X-69730Y869950D01*
X-68280Y870370D01*
X-67150Y871220D01*
X-66350Y872700D01*
X-66190Y874390D01*
X-66510Y876090D01*
X-67310Y877150D01*
X-68440Y877990D01*
X-69560Y878200D01*
X-70690Y877990D01*
X-72140Y877150D01*
X-71660Y882650D01*
X-67310D01*
G01X-79140Y856190D02*
X-80100Y856830D01*
X-81230Y857250D01*
X-82510D01*
X-83960Y856610D01*
X-85090Y855560D01*
X-85890Y854290D01*
X-86540Y852170D01*
X-86700Y850260D01*
X-86370Y848360D01*
X-85890Y847090D01*
X-84930Y845820D01*
X-83800Y844970D01*
X-82680Y844550D01*
X-81550D01*
X-80420Y844970D01*
X-79460Y845610D01*
X-78650Y846450D01*
G01X-69730Y844550D02*
X-68600Y844760D01*
X-67310Y845400D01*
X-66510Y846450D01*
X-66190Y847940D01*
X-66510Y849420D01*
X-67470Y850690D01*
X-68920Y851320D01*
X-70530D01*
X-71490Y851750D01*
X-72300Y852800D01*
X-72620Y854290D01*
X-72140Y855770D01*
X-71010Y856830D01*
X-69730Y857250D01*
X-68440Y856830D01*
X-67310Y855770D01*
X-66830Y854290D01*
X-67150Y852800D01*
X-67960Y851750D01*
X-68920Y851320D01*
X-70530D01*
X-71980Y850690D01*
X-72940Y849420D01*
X-73260Y847940D01*
X-72940Y846450D01*
X-72140Y845400D01*
X-70850Y844760D01*
X-69730Y844550D01*
G01X-79140Y830790D02*
X-80100Y831430D01*
X-81230Y831850D01*
X-82510D01*
X-83960Y831210D01*
X-85090Y830160D01*
X-85890Y828890D01*
X-86540Y826770D01*
X-86700Y824860D01*
X-86370Y822960D01*
X-85890Y821690D01*
X-84930Y820420D01*
X-83800Y819570D01*
X-82680Y819150D01*
X-81550D01*
X-80420Y819570D01*
X-79460Y820210D01*
X-78650Y821050D01*
G01X-72460Y820630D02*
X-71330Y819570D01*
X-70050Y819150D01*
X-68760Y819570D01*
X-67630Y820840D01*
X-66830Y822750D01*
X-66510Y824650D01*
Y826980D01*
X-66830Y828890D01*
X-67630Y830580D01*
X-68600Y831430D01*
X-69730Y831850D01*
X-71010Y831430D01*
X-71980Y830580D01*
X-72620Y829310D01*
X-72940Y827620D01*
X-72620Y826140D01*
X-71820Y824650D01*
X-70850Y823810D01*
X-69730Y823590D01*
X-68440Y824020D01*
X-67470Y825080D01*
X-66510Y826980D01*
G01X-79140Y945090D02*
X-80100Y945730D01*
X-81230Y946150D01*
X-82510D01*
X-83960Y945510D01*
X-85090Y944460D01*
X-85890Y943190D01*
X-86540Y941070D01*
X-86700Y939160D01*
X-86370Y937260D01*
X-85890Y935990D01*
X-84930Y934720D01*
X-83800Y933870D01*
X-82680Y933450D01*
X-81550D01*
X-80420Y933870D01*
X-79460Y934510D01*
X-78650Y935350D01*
G01X-67790Y933450D02*
Y946150D01*
X-73750Y937050D01*
X-65700D01*
G01X-79140Y970490D02*
X-80100Y971130D01*
X-81230Y971550D01*
X-82510D01*
X-83960Y970910D01*
X-85090Y969860D01*
X-85890Y968590D01*
X-86540Y966470D01*
X-86700Y964560D01*
X-86370Y962660D01*
X-85890Y961390D01*
X-84930Y960120D01*
X-83800Y959270D01*
X-82680Y958850D01*
X-81550D01*
X-80420Y959270D01*
X-79460Y959910D01*
X-78650Y960750D01*
G01X-70050Y958850D02*
X-69730Y961600D01*
X-69240Y963930D01*
X-68600Y966050D01*
X-67790Y968370D01*
X-66510Y971550D01*
X-72940D01*
G01X-94940Y1046230D02*
X-91080D01*
G01X-93180Y1048990D02*
Y1043480D01*
G01X-78290Y1042000D02*
Y1054700D01*
X-84250Y1045600D01*
X-76200D01*
G01X-67280Y1042000D02*
X-66150Y1042210D01*
X-64860Y1042850D01*
X-64060Y1043900D01*
X-63740Y1045390D01*
X-64060Y1046870D01*
X-65020Y1048140D01*
X-66470Y1048770D01*
X-68080D01*
X-69040Y1049200D01*
X-69850Y1050250D01*
X-70170Y1051740D01*
X-69690Y1053220D01*
X-68560Y1054280D01*
X-67280Y1054700D01*
X-65990Y1054280D01*
X-64860Y1053220D01*
X-64380Y1051740D01*
X-64700Y1050250D01*
X-65510Y1049200D01*
X-66470Y1048770D01*
X-68080D01*
X-69530Y1048140D01*
X-70490Y1046870D01*
X-70810Y1045390D01*
X-70490Y1043900D01*
X-69690Y1042850D01*
X-68400Y1042210D01*
X-67280Y1042000D01*
G01X-53040Y1048770D02*
X-52390Y1049410D01*
X-51910Y1050470D01*
X-51590Y1051950D01*
X-51910Y1053220D01*
X-52560Y1054060D01*
X-53680Y1054700D01*
X-58020D01*
Y1042000D01*
X-52720D01*
X-51590Y1042850D01*
X-50950Y1044120D01*
X-50630Y1045600D01*
X-50950Y1047080D01*
X-51910Y1048350D01*
X-53040Y1048770D01*
X-58020D01*
G01X-91360Y1058000D02*
Y1070700D01*
X-87180Y1060120D01*
X-82990Y1070700D01*
Y1058000D01*
G01X-77600D02*
Y1070700D01*
G01X-70850D02*
Y1058000D01*
G01Y1064350D02*
X-77600D01*
G01X-61280Y1058000D02*
Y1070700D01*
X-63210Y1068160D01*
G01Y1058000D02*
X-59350D01*
G01X-79700Y2205570D02*
X-72950Y2218270D01*
G01X-79700D02*
X-72950Y2205570D01*
G01X-66910Y2208110D02*
X-65950Y2206630D01*
X-64660Y2205780D01*
X-63210Y2205570D01*
X-61930Y2205780D01*
X-60640Y2206840D01*
X-59840Y2208110D01*
X-59680Y2209380D01*
X-60000Y2210860D01*
X-61120Y2211920D01*
X-62250Y2212340D01*
X-63700D01*
G01X-62250D02*
X-61280Y2212980D01*
X-60480Y2214040D01*
X-60160Y2215310D01*
X-60480Y2216580D01*
X-61280Y2217630D01*
X-62730Y2218270D01*
X-64180Y2218060D01*
X-65630Y2217210D01*
G01X3410Y138640D02*
X2450Y139280D01*
X1320Y139700D01*
X40D01*
X-1410Y139060D01*
X-2540Y138010D01*
X-3340Y136740D01*
X-3990Y134620D01*
X-4150Y132710D01*
X-3820Y130810D01*
X-3340Y129540D01*
X-2380Y128270D01*
X-1250Y127420D01*
X-130Y127000D01*
X1000D01*
X2130Y127420D01*
X3090Y128060D01*
X3900Y128900D01*
G01X9290Y129540D02*
X10250Y128060D01*
X11540Y127210D01*
X12990Y127000D01*
X14270Y127210D01*
X15560Y128270D01*
X16360Y129540D01*
X16520Y130810D01*
X16200Y132290D01*
X15080Y133350D01*
X13950Y133770D01*
X12500D01*
G01X13950D02*
X14920Y134410D01*
X15720Y135470D01*
X16040Y136740D01*
X15720Y138010D01*
X14920Y139060D01*
X13470Y139700D01*
X12020Y139490D01*
X10570Y138640D01*
G01X-47620Y880300D02*
Y872300D01*
G01Y846900D02*
Y854900D01*
G01Y829500D02*
Y821500D01*
G01Y935800D02*
Y943800D01*
G01Y961200D02*
Y969200D01*
G01X-37430Y1000640D02*
X-38390Y1001280D01*
X-39520Y1001700D01*
X-40800D01*
X-42250Y1001060D01*
X-43380Y1000010D01*
X-44180Y998740D01*
X-44830Y996620D01*
X-44990Y994710D01*
X-44660Y992810D01*
X-44180Y991540D01*
X-43220Y990270D01*
X-42090Y989420D01*
X-40970Y989000D01*
X-39840D01*
X-38710Y989420D01*
X-37750Y990060D01*
X-36940Y990900D01*
G01X-28020Y989000D02*
Y1001700D01*
X-29950Y999160D01*
G01Y989000D02*
X-26090D01*
G01X-15070Y1001700D02*
X-16350Y1001280D01*
X-17320Y1000220D01*
X-17960Y998950D01*
X-18440Y997250D01*
X-18600Y995350D01*
X-18440Y993440D01*
X-17960Y991750D01*
X-17320Y990480D01*
X-16350Y989420D01*
X-15070Y989000D01*
X-13780Y989420D01*
X-12810Y990480D01*
X-12170Y991750D01*
X-11690Y993440D01*
X-11530Y995350D01*
X-11690Y997250D01*
X-12170Y998950D01*
X-12810Y1000220D01*
X-13780Y1001280D01*
X-15070Y1001700D01*
G01X-3690Y1055700D02*
Y1043000D01*
X2740D01*
G01X12470D02*
Y1055700D01*
X10540Y1053160D01*
G01Y1043000D02*
X14400D01*
G01X-31940Y1213640D02*
X-32900Y1214280D01*
X-34030Y1214700D01*
X-35310D01*
X-36760Y1214060D01*
X-37890Y1213010D01*
X-38690Y1211740D01*
X-39340Y1209620D01*
X-39500Y1207710D01*
X-39170Y1205810D01*
X-38690Y1204540D01*
X-37730Y1203270D01*
X-36600Y1202420D01*
X-35480Y1202000D01*
X-34350D01*
X-33220Y1202420D01*
X-32260Y1203060D01*
X-31450Y1203900D01*
G01X-22530Y1202000D02*
Y1214700D01*
X-24460Y1212160D01*
G01Y1202000D02*
X-20600D01*
G01X-4250Y1313060D02*
X-4700Y1312480D01*
X-5000Y1311800D01*
Y1311020D01*
X-4550Y1310140D01*
X-3800Y1309460D01*
X-2900Y1308970D01*
X-1400Y1308580D01*
X-50Y1308490D01*
X1300Y1308680D01*
X2200Y1308970D01*
X3100Y1309560D01*
X3700Y1310240D01*
X4000Y1310920D01*
Y1311600D01*
X3700Y1312280D01*
X3250Y1312870D01*
X2650Y1313350D01*
G01X4000Y1318790D02*
X-5000D01*
X-3200Y1317620D01*
G01X4000D02*
Y1319960D01*
G01X-48000Y1308490D02*
X-57000Y1310920D01*
X-48000Y1313350D01*
G01X-51150Y1312480D02*
Y1309360D01*
G01X-48000Y1318790D02*
X-57000D01*
X-55200Y1317620D01*
G01X-48000D02*
Y1319960D01*
G01X-9270Y1288230D02*
X-5080D01*
G01X7710Y1284000D02*
Y1296700D01*
X1750Y1287600D01*
X9800D01*
G01X18720Y1284000D02*
X19850Y1284210D01*
X21140Y1284850D01*
X21940Y1285900D01*
X22260Y1287390D01*
X21940Y1288870D01*
X20980Y1290140D01*
X19530Y1290770D01*
X17920D01*
X16960Y1291200D01*
X16150Y1292250D01*
X15830Y1293740D01*
X16310Y1295220D01*
X17440Y1296280D01*
X18720Y1296700D01*
X20010Y1296280D01*
X21140Y1295220D01*
X21620Y1293740D01*
X21300Y1292250D01*
X20490Y1291200D01*
X19530Y1290770D01*
X17920D01*
X16470Y1290140D01*
X15510Y1288870D01*
X15190Y1287390D01*
X15510Y1285900D01*
X16310Y1284850D01*
X17600Y1284210D01*
X18720Y1284000D01*
G01X32960Y1290770D02*
X33610Y1291410D01*
X34090Y1292470D01*
X34410Y1293950D01*
X34090Y1295220D01*
X33440Y1296060D01*
X32320Y1296700D01*
X27980D01*
Y1284000D01*
X33280D01*
X34410Y1284850D01*
X35050Y1286120D01*
X35370Y1287600D01*
X35050Y1289080D01*
X34090Y1290350D01*
X32960Y1290770D01*
X27980D01*
G01X47460Y-53980D02*
Y-41280D01*
X51480D01*
X52770Y-41920D01*
X53570Y-42760D01*
X53890Y-44460D01*
X53570Y-46150D01*
X52610Y-47210D01*
X51480Y-47840D01*
X47460D01*
G01X51480D02*
X53890Y-53980D01*
G01X60090Y-52080D02*
X61050Y-53130D01*
X62180Y-53770D01*
X63620Y-53980D01*
X65070Y-53560D01*
X66200Y-52710D01*
X67000Y-51230D01*
X67160Y-49540D01*
X66840Y-47840D01*
X66040Y-46780D01*
X64910Y-45940D01*
X63790Y-45730D01*
X62660Y-45940D01*
X61210Y-46780D01*
X61690Y-41280D01*
X66040D01*
G01X31590Y111120D02*
Y123820D01*
X35610D01*
X36900Y123180D01*
X37700Y122340D01*
X38020Y120640D01*
X37700Y118950D01*
X36740Y117890D01*
X35610Y117260D01*
X31590D01*
G01X35610D02*
X38020Y111120D01*
G01X44700Y116410D02*
X45820Y117890D01*
X46790Y118740D01*
X48080Y119160D01*
X49200Y118740D01*
X50010Y117890D01*
X50650Y116620D01*
X50810Y115140D01*
X50650Y113870D01*
X50010Y112600D01*
X49040Y111540D01*
X47920Y111120D01*
X46630Y111540D01*
X45500Y112810D01*
X44860Y114720D01*
X44700Y116830D01*
X45020Y119590D01*
X45500Y121070D01*
X46310Y122550D01*
X47430Y123610D01*
X48560Y123820D01*
X49690Y123400D01*
X50490Y122340D01*
G01X45030Y74700D02*
Y62000D01*
G01X41340Y74700D02*
X48730D01*
G01X53960D02*
X57980Y62000D01*
X62010Y74700D01*
G01X67880Y72580D02*
X68840Y73850D01*
X69970Y74490D01*
X71260Y74700D01*
X72870Y74280D01*
X73990Y73220D01*
X74310Y71950D01*
X74150Y70680D01*
X73510Y69620D01*
X70290Y67500D01*
X68840Y66020D01*
X67880Y63900D01*
X67560Y62000D01*
X74310D01*
G01X47030Y274700D02*
Y262000D01*
G01X43340Y274700D02*
X50730D01*
G01X55960D02*
X59980Y262000D01*
X64010Y274700D01*
G01X72930Y262000D02*
Y274700D01*
X71000Y272160D01*
G01Y262000D02*
X74860D01*
G01X12530Y311150D02*
Y323850D01*
X16550D01*
X17840Y323210D01*
X18640Y322370D01*
X18960Y320670D01*
X18640Y318980D01*
X17680Y317920D01*
X16550Y317290D01*
X12530D01*
G01X16550D02*
X18960Y311150D01*
G01X30630D02*
Y323850D01*
X24670Y314750D01*
X32720D01*
G01X18360Y547640D02*
X17400Y548280D01*
X16270Y548700D01*
X14990D01*
X13540Y548060D01*
X12410Y547010D01*
X11610Y545740D01*
X10960Y543620D01*
X10800Y541710D01*
X11130Y539810D01*
X11610Y538540D01*
X12570Y537270D01*
X13700Y536420D01*
X14820Y536000D01*
X15950D01*
X17080Y536420D01*
X18040Y537060D01*
X18850Y537900D01*
G01X27770Y536000D02*
X26490Y536210D01*
X25360Y537060D01*
X24400Y538330D01*
X23750Y539810D01*
X23430Y541500D01*
Y543200D01*
X23750Y544890D01*
X24400Y546370D01*
X25360Y547640D01*
X26490Y548490D01*
X27770Y548700D01*
X29060Y548490D01*
X30190Y547640D01*
X31150Y546370D01*
X31800Y544890D01*
X32120Y543200D01*
Y541500D01*
X31800Y539810D01*
X31150Y538330D01*
X30190Y537060D01*
X29060Y536210D01*
X27770Y536000D01*
G01X36540D02*
Y548700D01*
X40720Y538120D01*
X44910Y548700D01*
Y536000D01*
G01X17450Y552000D02*
X24200Y564700D01*
G01X17450D02*
X24200Y552000D01*
G01X30720Y557290D02*
X31840Y558770D01*
X32810Y559620D01*
X34100Y560040D01*
X35220Y559620D01*
X36030Y558770D01*
X36670Y557500D01*
X36830Y556020D01*
X36670Y554750D01*
X36030Y553480D01*
X35060Y552420D01*
X33940Y552000D01*
X32650Y552420D01*
X31520Y553690D01*
X30880Y555600D01*
X30720Y557710D01*
X31040Y560470D01*
X31520Y561950D01*
X32330Y563430D01*
X33450Y564490D01*
X34580Y564700D01*
X35710Y564280D01*
X36510Y563220D01*
G01X23790Y666350D02*
X27010D01*
Y662540D01*
X26040Y661270D01*
X24920Y660420D01*
X23310Y660000D01*
X21700Y660420D01*
X20570Y661270D01*
X19610Y662540D01*
X18960Y664020D01*
X18640Y665710D01*
Y667200D01*
X18960Y668470D01*
X19610Y669950D01*
X20570Y671220D01*
X21540Y672060D01*
X22820Y672700D01*
X23950D01*
X25240Y672280D01*
X26200Y671430D01*
G01X32080Y660000D02*
Y672700D01*
X39470Y660000D01*
Y672700D01*
G01X45190Y660000D02*
Y672700D01*
X48400D01*
X49690Y672060D01*
X50660Y671220D01*
X51460Y669950D01*
X52100Y668470D01*
X52260Y666350D01*
X52100Y664230D01*
X51460Y662750D01*
X50660Y661480D01*
X49690Y660630D01*
X48400Y660000D01*
X45190D01*
G01X54310Y804000D02*
Y816700D01*
X58330D01*
X59620Y816060D01*
X60420Y815220D01*
X60740Y813520D01*
X60420Y811830D01*
X59460Y810770D01*
X58330Y810140D01*
X54310D01*
G01X58330D02*
X60740Y804000D01*
G01X70150D02*
X70470Y806750D01*
X70960Y809080D01*
X71600Y811200D01*
X72410Y813520D01*
X73690Y816700D01*
X67260D01*
G01X12820Y805000D02*
Y817700D01*
X16840D01*
X18130Y817060D01*
X18930Y816220D01*
X19250Y814520D01*
X18930Y812830D01*
X17970Y811770D01*
X16840Y811140D01*
X12820D01*
G01X16840D02*
X19250Y805000D01*
G01X28980D02*
Y817700D01*
X27050Y815160D01*
G01Y805000D02*
X30910D01*
G01X41930Y817700D02*
X40650Y817280D01*
X39680Y816220D01*
X39040Y814950D01*
X38560Y813250D01*
X38400Y811350D01*
X38560Y809440D01*
X39040Y807750D01*
X39680Y806480D01*
X40650Y805420D01*
X41930Y805000D01*
X43220Y805420D01*
X44190Y806480D01*
X44830Y807750D01*
X45310Y809440D01*
X45470Y811350D01*
X45310Y813250D01*
X44830Y814950D01*
X44190Y816220D01*
X43220Y817280D01*
X41930Y817700D01*
G01X19450Y742000D02*
X26200Y754700D01*
G01X19450D02*
X26200Y742000D01*
G01X35770D02*
Y754700D01*
X33840Y752160D01*
G01Y742000D02*
X37700D01*
G01X48720D02*
Y754700D01*
X46790Y752160D01*
G01Y742000D02*
X50650D01*
G01X17170Y981080D02*
Y993780D01*
X20380D01*
X21670Y993140D01*
X22640Y992300D01*
X23440Y991030D01*
X24080Y989550D01*
X24240Y987430D01*
X24080Y985310D01*
X23440Y983830D01*
X22640Y982560D01*
X21670Y981710D01*
X20380Y981080D01*
X17170D01*
G01X30120D02*
Y993780D01*
X33330D01*
X34620Y993140D01*
X35590Y992300D01*
X36390Y991030D01*
X37030Y989550D01*
X37190Y987430D01*
X37030Y985310D01*
X36390Y983830D01*
X35590Y982560D01*
X34620Y981710D01*
X33330Y981080D01*
X30120D01*
G01X46600D02*
Y993780D01*
X44670Y991240D01*
G01Y981080D02*
X48530D01*
G01X53980Y1251110D02*
X66680D01*
Y1247090D01*
X66040Y1245800D01*
X65200Y1245000D01*
X63500Y1244680D01*
X61810Y1245000D01*
X60750Y1245960D01*
X60120Y1247090D01*
Y1251110D01*
G01Y1247090D02*
X53980Y1244680D01*
G01Y1234950D02*
X66680D01*
X64140Y1236880D01*
G01X53980D02*
Y1233020D01*
G01X15450Y1300000D02*
X22200Y1312700D01*
G01X15450D02*
X22200Y1300000D01*
G01X28240Y1301900D02*
X29200Y1300850D01*
X30330Y1300210D01*
X31770Y1300000D01*
X33220Y1300420D01*
X34350Y1301270D01*
X35150Y1302750D01*
X35310Y1304440D01*
X34990Y1306140D01*
X34190Y1307200D01*
X33060Y1308040D01*
X31940Y1308250D01*
X30810Y1308040D01*
X29360Y1307200D01*
X29840Y1312700D01*
X34190D01*
G01X64000Y1726800D02*
X51300Y1730820D01*
X64000Y1734850D01*
G01X59560Y1733400D02*
Y1728250D01*
G01X68230Y1740880D02*
X55530D01*
G01X57440D02*
X56380Y1741680D01*
X55750Y1742490D01*
X55530Y1743770D01*
X55750Y1744900D01*
X56800Y1746030D01*
X58290Y1746510D01*
X59770Y1746670D01*
X61250Y1746510D01*
X62730Y1746030D01*
X63580Y1745060D01*
X64000Y1743770D01*
X63790Y1742650D01*
X63150Y1741520D01*
X62310Y1740880D01*
G01X64000Y1754470D02*
X55530D01*
G01X57230D02*
X56380Y1755280D01*
X55750Y1756080D01*
X55530Y1757210D01*
X55750Y1758010D01*
X56380Y1758980D01*
G01X55530Y1769670D02*
X64000D01*
G01X52150D02*
X51940Y1769350D01*
X51510D01*
X51300Y1769670D01*
X51510Y1770000D01*
X51940D01*
X52150Y1769670D01*
G01X64000Y1782620D02*
X51300D01*
G01X53420Y1805470D02*
X52150Y1806430D01*
X51510Y1807560D01*
X51300Y1808850D01*
X51720Y1810460D01*
X52780Y1811580D01*
X54050Y1811900D01*
X55320Y1811740D01*
X56380Y1811100D01*
X58500Y1807880D01*
X59980Y1806430D01*
X62100Y1805470D01*
X64000Y1805150D01*
Y1811900D01*
G01X51300Y1821470D02*
X51720Y1820190D01*
X52780Y1819220D01*
X54050Y1818580D01*
X55750Y1818100D01*
X57650Y1817940D01*
X59560Y1818100D01*
X61250Y1818580D01*
X62520Y1819220D01*
X63580Y1820190D01*
X64000Y1821470D01*
X63580Y1822760D01*
X62520Y1823730D01*
X61250Y1824370D01*
X59560Y1824850D01*
X57650Y1825010D01*
X55750Y1824850D01*
X54050Y1824370D01*
X52780Y1823730D01*
X51720Y1822760D01*
X51300Y1821470D01*
G01X64000Y1834420D02*
X51300D01*
X53840Y1832490D01*
G01X64000D02*
Y1836350D01*
G01X61460Y1843840D02*
X62940Y1844800D01*
X63790Y1846090D01*
X64000Y1847540D01*
X63790Y1848820D01*
X62730Y1850110D01*
X61460Y1850910D01*
X60190Y1851070D01*
X58710Y1850750D01*
X57650Y1849630D01*
X57230Y1848500D01*
Y1847050D01*
G01Y1848500D02*
X56590Y1849470D01*
X55530Y1850270D01*
X54260Y1850590D01*
X52990Y1850270D01*
X51940Y1849470D01*
X51300Y1848020D01*
X51510Y1846570D01*
X52360Y1845120D01*
G01X21300Y1728820D02*
X34000D01*
G01X21300Y1725130D02*
Y1732520D01*
G01X34000Y1744990D02*
Y1738560D01*
X21300D01*
Y1744990D01*
G01X27440Y1742420D02*
Y1738560D01*
G01X32310Y1751350D02*
X33370Y1752630D01*
X34000Y1754080D01*
Y1755370D01*
X33370Y1756660D01*
X32310Y1757620D01*
X30820Y1758100D01*
X29340Y1757780D01*
X28070Y1756980D01*
X27230Y1755530D01*
X26800Y1753600D01*
X25960Y1752470D01*
X24480Y1751990D01*
X22990Y1752310D01*
X21940Y1753120D01*
X21300Y1754240D01*
Y1755370D01*
X21720Y1756490D01*
X22780Y1757460D01*
G01X21300Y1767670D02*
X34000D01*
G01X21300Y1763980D02*
Y1771370D01*
G01X29770Y1778530D02*
Y1782720D01*
G01X21300Y1790040D02*
X30400D01*
X32310Y1790680D01*
X33580Y1791970D01*
X34000Y1793570D01*
X33580Y1795180D01*
X32310Y1796470D01*
X30400Y1797110D01*
X21300D01*
G01X34000Y1802340D02*
X21300D01*
X31880Y1806520D01*
X21300Y1810710D01*
X34000D01*
G01X38230Y1814650D02*
Y1824300D01*
G01X21300Y1832420D02*
X21720Y1831140D01*
X22780Y1830170D01*
X24050Y1829530D01*
X25750Y1829050D01*
X27650Y1828890D01*
X29560Y1829050D01*
X31250Y1829530D01*
X32520Y1830170D01*
X33580Y1831140D01*
X34000Y1832420D01*
X33580Y1833710D01*
X32520Y1834680D01*
X31250Y1835320D01*
X29560Y1835800D01*
X27650Y1835960D01*
X25750Y1835800D01*
X24050Y1835320D01*
X22780Y1834680D01*
X21720Y1833710D01*
X21300Y1832420D01*
G01X34000Y1845370D02*
X21300D01*
X23840Y1843440D01*
G01X34000D02*
Y1847300D01*
G01X25530Y1855430D02*
X34000Y1858320D01*
X25530Y1861220D01*
G01X34000Y1871270D02*
X21300D01*
X23840Y1869340D01*
G01X34000D02*
Y1873200D01*
G01X42820Y2133000D02*
Y2145700D01*
X46840D01*
X48130Y2145060D01*
X48930Y2144220D01*
X49250Y2142520D01*
X48930Y2140830D01*
X47970Y2139770D01*
X46840Y2139140D01*
X42820D01*
G01X46840D02*
X49250Y2133000D01*
G01X58980D02*
Y2145700D01*
X57050Y2143160D01*
G01Y2133000D02*
X60910D01*
G01X71930D02*
Y2145700D01*
X70000Y2143160D01*
G01Y2133000D02*
X73860D01*
G01X9300Y2145010D02*
X22000Y2149030D01*
X9300Y2153060D01*
G01X22000Y2158450D02*
X9300D01*
Y2161660D01*
X9940Y2162950D01*
X10780Y2163920D01*
X12050Y2164720D01*
X13530Y2165360D01*
X15650Y2165520D01*
X17770Y2165360D01*
X19250Y2164720D01*
X20520Y2163920D01*
X21370Y2162950D01*
X22000Y2161660D01*
Y2158450D01*
G01Y2174930D02*
X9300D01*
X11840Y2173000D01*
G01X22000D02*
Y2176860D01*
G01X94250Y806940D02*
X94700Y807520D01*
X95000Y808200D01*
Y808980D01*
X94550Y809860D01*
X93800Y810540D01*
X92900Y811030D01*
X91400Y811420D01*
X90050Y811510D01*
X88700Y811320D01*
X87800Y811030D01*
X86900Y810440D01*
X86300Y809760D01*
X86000Y809080D01*
Y808400D01*
X86300Y807720D01*
X86750Y807130D01*
X87350Y806650D01*
G01X86000Y801210D02*
X95000D01*
X93200Y802380D01*
G01X86000D02*
Y800040D01*
G01X136000Y811510D02*
X145000Y809080D01*
X136000Y806650D01*
G01X139150Y807520D02*
Y810640D01*
G01X136000Y801210D02*
X145000D01*
X143200Y802380D01*
G01X136000D02*
Y800040D01*
G01X133060Y890640D02*
X132100Y891280D01*
X130970Y891700D01*
X129690D01*
X128240Y891060D01*
X127110Y890010D01*
X126310Y888740D01*
X125660Y886620D01*
X125500Y884710D01*
X125830Y882810D01*
X126310Y881540D01*
X127270Y880270D01*
X128400Y879420D01*
X129520Y879000D01*
X130650D01*
X131780Y879420D01*
X132740Y880060D01*
X133550Y880900D01*
G01X139420Y884290D02*
X140540Y885770D01*
X141510Y886620D01*
X142800Y887040D01*
X143920Y886620D01*
X144730Y885770D01*
X145370Y884500D01*
X145530Y883020D01*
X145370Y881750D01*
X144730Y880480D01*
X143760Y879420D01*
X142640Y879000D01*
X141350Y879420D01*
X140220Y880690D01*
X139580Y882600D01*
X139420Y884710D01*
X139740Y887470D01*
X140220Y888950D01*
X141030Y890430D01*
X142150Y891490D01*
X143280Y891700D01*
X144410Y891280D01*
X145210Y890220D01*
G01X118300Y892180D02*
X110300D01*
G01X135010Y909700D02*
X139030Y897000D01*
X143060Y909700D01*
G01X148450Y897000D02*
Y909700D01*
X151660D01*
X152950Y909060D01*
X153920Y908220D01*
X154720Y906950D01*
X155360Y905470D01*
X155520Y903350D01*
X155360Y901230D01*
X154720Y899750D01*
X153920Y898480D01*
X152950Y897630D01*
X151660Y897000D01*
X148450D01*
G01X161880Y907580D02*
X162840Y908850D01*
X163970Y909490D01*
X165260Y909700D01*
X166870Y909280D01*
X167990Y908220D01*
X168310Y906950D01*
X168150Y905680D01*
X167510Y904620D01*
X164290Y902500D01*
X162840Y901020D01*
X161880Y898900D01*
X161560Y897000D01*
X168310D01*
G01X120650Y1247940D02*
X133350D01*
Y1243920D01*
X132710Y1242630D01*
X131870Y1241830D01*
X130170Y1241510D01*
X128480Y1241830D01*
X127420Y1242790D01*
X126790Y1243920D01*
Y1247940D01*
G01Y1243920D02*
X120650Y1241510D01*
G01X131230Y1234830D02*
X132500Y1233870D01*
X133140Y1232740D01*
X133350Y1231450D01*
X132930Y1229840D01*
X131870Y1228720D01*
X130600Y1228400D01*
X129330Y1228560D01*
X128270Y1229200D01*
X126150Y1232420D01*
X124670Y1233870D01*
X122550Y1234830D01*
X120650Y1235150D01*
Y1228400D01*
G01X123200Y1200150D02*
Y1212850D01*
X126410D01*
X127700Y1212210D01*
X128670Y1211370D01*
X129470Y1210100D01*
X130110Y1208620D01*
X130270Y1206500D01*
X130110Y1204380D01*
X129470Y1202900D01*
X128670Y1201630D01*
X127700Y1200780D01*
X126410Y1200150D01*
X123200D01*
G01X135660D02*
X139680Y1212850D01*
X143710Y1200150D01*
G01X142260Y1204590D02*
X137110D01*
G01X152630Y1200150D02*
Y1212850D01*
X150700Y1210310D01*
G01Y1200150D02*
X154560D01*
G01X94250Y2140940D02*
X94700Y2141520D01*
X95000Y2142200D01*
Y2142980D01*
X94550Y2143860D01*
X93800Y2144540D01*
X92900Y2145030D01*
X91400Y2145420D01*
X90050Y2145510D01*
X88700Y2145320D01*
X87800Y2145030D01*
X86900Y2144440D01*
X86300Y2143760D01*
X86000Y2143080D01*
Y2142400D01*
X86300Y2141720D01*
X86750Y2141130D01*
X87350Y2140650D01*
G01X86000Y2135210D02*
X95000D01*
X93200Y2136380D01*
G01X86000D02*
Y2134040D01*
G01X136000Y2145510D02*
X145000Y2143080D01*
X136000Y2140650D01*
G01X139150Y2141520D02*
Y2144640D01*
G01X136000Y2135210D02*
X145000D01*
X143200Y2136380D01*
G01X136000D02*
Y2134040D01*
G01X148900Y2206620D02*
X155650Y2219320D01*
G01X148900D02*
X155650Y2206620D01*
G01X165220D02*
Y2219320D01*
X163290Y2216780D01*
G01Y2206620D02*
X167150D01*
G01X164150Y874000D02*
X170900Y886700D01*
G01X164150D02*
X170900Y874000D01*
G01X177420Y884580D02*
X178380Y885850D01*
X179510Y886490D01*
X180800Y886700D01*
X182410Y886280D01*
X183530Y885220D01*
X183850Y883950D01*
X183690Y882680D01*
X183050Y881620D01*
X179830Y879500D01*
X178380Y878020D01*
X177420Y875900D01*
X177100Y874000D01*
X183850D01*
G01X160820Y938000D02*
Y950700D01*
X164840D01*
X166130Y950060D01*
X166930Y949220D01*
X167250Y947520D01*
X166930Y945830D01*
X165970Y944770D01*
X164840Y944140D01*
X160820D01*
G01X164840D02*
X167250Y938000D01*
G01X176980D02*
Y950700D01*
X175050Y948160D01*
G01Y938000D02*
X178910D01*
G01X186880Y948580D02*
X187840Y949850D01*
X188970Y950490D01*
X190260Y950700D01*
X191870Y950280D01*
X192990Y949220D01*
X193310Y947950D01*
X193150Y946680D01*
X192510Y945620D01*
X189290Y943500D01*
X187840Y942020D01*
X186880Y939900D01*
X186560Y938000D01*
X193310D01*
G01X171060Y980640D02*
X170100Y981280D01*
X168970Y981700D01*
X167690D01*
X166240Y981060D01*
X165110Y980010D01*
X164310Y978740D01*
X163660Y976620D01*
X163500Y974710D01*
X163830Y972810D01*
X164310Y971540D01*
X165270Y970270D01*
X166400Y969420D01*
X167520Y969000D01*
X168650D01*
X169780Y969420D01*
X170740Y970060D01*
X171550Y970900D01*
G01X177420Y979580D02*
X178380Y980850D01*
X179510Y981490D01*
X180800Y981700D01*
X182410Y981280D01*
X183530Y980220D01*
X183850Y978950D01*
X183690Y977680D01*
X183050Y976620D01*
X179830Y974500D01*
X178380Y973020D01*
X177420Y970900D01*
X177100Y969000D01*
X183850D01*
G54D14*
G01X-14450Y-35800D02*
Y-65800D01*
X-74450D01*
Y-35800D01*
X-14450D01*
G01Y116600D02*
Y86600D01*
X-74450D01*
Y116600D01*
X-14450D01*
G01Y164220D02*
Y134220D01*
X-74450D01*
Y164220D01*
X-14450D01*
G01Y316620D02*
Y286620D01*
X-74450D01*
Y316620D01*
X-14450D01*
G01X-81680Y411000D02*
X-51680D01*
Y351000D01*
X-81680D01*
Y411000D01*
G01X-79550Y1146300D02*
G03X-80800Y1147550I-1250J0D01*
G01D02*
G03X-82050Y1146300I0J-1250D01*
G01D02*
G03X-80800Y1145050I1250J0D01*
G01D02*
G03X-79550Y1146300I0J1250D01*
G01X57500Y532600D02*
Y330100D01*
X-32500D01*
Y532600D01*
X57500D01*
G01X52500Y527600D02*
Y335100D01*
X-27500D01*
Y527600D01*
X52500D01*
G01X-32500Y412600D02*
X-27500D01*
G01X-32500Y450100D02*
X-27500D01*
G01X30880Y1217780D02*
X880D01*
Y1277780D01*
X30880D01*
Y1217780D01*
G01X20200Y572400D02*
X4200D01*
G01X12200Y580400D02*
Y564400D01*
G01X20200Y629640D02*
X4200D01*
G01X12200Y637640D02*
Y621640D01*
G01X19920Y738020D02*
X49920D01*
Y678020D01*
X19920D01*
Y738020D01*
G01X30000Y2178000D02*
Y2194000D01*
G01X22000Y2186000D02*
X38000D01*
G01X145000Y920000D02*
X161000D01*
G01X153000Y928000D02*
Y912000D01*
G01X86700Y1022350D02*
G03I-1250J0D01*
M02*
