M48
METRIC,TZ
T01C.5
T02C1.
T03C2.
T04C3.2
;LEADER: 12 
;HEADER: 
;CODE  : ASCII 
;FILE  : test-um_01v1-1-2.drl for  ... layers TOP and BOTTOM
;T01 Holesize 1. = 0.500000 Tolerance = +0.000000/-0.000000 PLATED MM Quantity = 16
;T02 Holesize 2. = 1.000000 Tolerance = +0.000000/-0.000000 PLATED MM Quantity = 220
;T03 Holesize 3. = 2.000000 Tolerance = +0.000000/-0.000000 PLATED MM Quantity = 1
;T04 Holesize 4. = 3.200000 Tolerance = +0.000000/-0.000000 PLATED MM Quantity = 6
%
G90
T01
X-39120Y981080
X-56120Y809620
X-10250Y603980
Y546820
X34200Y1154980
Y1108800
X107950Y1270000
X98420Y930280
R03Y-12700
X129150Y900680
X107950Y974720
X79380Y977900
X121520Y955680
X82550Y1270000
T02
X-57150Y101600
X-31750
X34920Y695320
Y720720
X-66680Y368300
Y393700
X0Y482600
X25400
X0Y457200
X25400
X0Y431800
X25400
X0Y406400
X25400
X0Y381000
X25400
X-57150Y301620
X-31750
X-57150Y149220
X-31750
X-57150Y-50800
X-31750
X107950Y1022350
Y1047750
Y1098550
Y1149350
X-50800Y1358900
R07Y25400
Y1587500
R08Y25400
Y1841500
R08Y25400
Y2095500
Y2120900
X0Y1358900
R07Y25400
X0Y1587500
R08Y25400
X0Y1841500
R08Y25400
X0Y2095500
X0Y2120900
X-50800Y1333500
X0
X-50800Y1562100
X0
X-50800Y1816100
X0
X-50800Y2070100
X0
X15880Y1260480
Y1235080
X139700Y2095500
R07Y-25400
Y1866900
R08Y-25400
Y1612900
R08Y-25400
Y1358900
Y1333500
X88900Y2095500
R07Y-25400
Y1866900
R08Y-25400
Y1612900
R08Y-25400
Y1358900
Y1333500
X139700Y2120900
X88900
X139700Y1892300
X88900
X139700Y1638300
X88900
X139700Y1384300
X88900
X139700Y762000
R07Y-25400
Y533400
R08Y-25400
Y279400
R08Y-25400
Y25400
Y0
X88900Y762000
R07Y-25400
Y533400
R08Y-25400
Y279400
R08Y-25400
Y25400
Y0
X139700Y787400
X88900
X139700Y558800
X88900
X139700Y304800
X88900
X139700Y50800
X88900
T03
X-66680Y1022350
T04
X-76200Y1282700
Y2171700
X165100
Y1282700
Y838200
Y-50800
M30
