G04 ================== begin FILE IDENTIFICATION RECORD ==================*
G04 Layout Name:  e:/ORCAD_sch/Other/TEST_UM/pcb/test-um_01v1.brd*
G04 Film Name:    TOP*
G04 File Format:  Gerber RS274X*
G04 File Origin:  Cadence Allegro 16.6-S003*
G04 Origin Date:  Tue Mar 05 10:06:57 2013*
G04 *
G04 Layer:  ETCH/TOP*
G04 Layer:  PIN/TOP*
G04 Layer:  VIA CLASS/TOP*
G04 *
G04 Offset:    (0.000 0.000)*
G04 Mirror:    No*
G04 Mode:      Positive*
G04 Rotation:  0*
G04 FullContactRelief:  No*
G04 UndefLineWidth:     0.000*
G04 ================== end FILE IDENTIFICATION RECORD ====================*
%FSLAX34Y34*MOMM*%
%IR0*IPPOS*OFA0.00000B0.00000*MIA0B0*SFA1.00000B1.00000*%
%ADD21R,2.2X.6*%
%ADD19C,1.*%
%ADD12C,3.1*%
%ADD14C,4.2*%
%ADD11C,1.6*%
%ADD23C,1.55*%
%ADD18R,2.05X2.05*%
%ADD10R,1.55X1.55*%
%ADD20R,1.1X1.4*%
%ADD24R,1.4X1.1*%
%ADD22R,2.X3.4*%
%ADD15R,1.X1.75*%
%ADD16R,1.75X1.*%
%ADD17R,1.25X1.8*%
%ADD13R,5.9X2.2*%
%ADD25C,.5*%
%ADD26C,.25*%
G75*
%LPD*%
G75*
G54D10*
X-66680Y368300D03*
X-57150Y-50800D03*
Y101600D03*
Y149220D03*
Y301620D03*
X0Y482600D03*
Y1333500D03*
X-50800D03*
X0Y1562100D03*
X-50800D03*
X0Y1816100D03*
X-50800D03*
X0Y2070100D03*
X-50800D03*
X34920Y695320D03*
X15880Y1260480D03*
X88900Y50800D03*
X139700D03*
X88900Y304800D03*
X139700D03*
X88900Y558800D03*
X139700D03*
X88900Y787400D03*
X139700D03*
X107950Y1022350D03*
X88900Y1384300D03*
X139700D03*
X88900Y1638300D03*
X139700D03*
X88900Y1892300D03*
X139700D03*
X88900Y2120900D03*
X139700D03*
G54D20*
X-56120Y876300D03*
X-39120D03*
Y850900D03*
X-56120D03*
Y825500D03*
X-39120D03*
Y939800D03*
X-56120D03*
X-39120Y965200D03*
X-56120D03*
G54D11*
X-66680Y393700D03*
X-31750Y-50800D03*
Y101600D03*
Y149220D03*
Y301620D03*
X0Y381000D03*
Y406400D03*
Y431800D03*
Y457200D03*
X25400Y381000D03*
Y406400D03*
Y431800D03*
Y457200D03*
Y482600D03*
X34920Y720720D03*
X15880Y1235080D03*
G54D12*
X-66680Y1022350D03*
G54D21*
X-12620Y876300D03*
Y863600D03*
Y850900D03*
Y952500D03*
Y939800D03*
Y927100D03*
Y914400D03*
Y901700D03*
Y889000D03*
Y965200D03*
X79380Y876300D03*
Y863600D03*
Y850900D03*
Y952500D03*
Y939800D03*
Y927100D03*
Y914400D03*
Y901700D03*
Y889000D03*
Y965200D03*
G54D13*
X-50800Y1130300D03*
X34200D03*
G54D22*
X1550Y1022350D03*
X36550D03*
G54D23*
X0Y1409700D03*
Y1384300D03*
Y1358900D03*
X-50800Y1409700D03*
Y1384300D03*
Y1358900D03*
X0Y1485900D03*
Y1460500D03*
Y1435100D03*
X-50800Y1485900D03*
Y1460500D03*
Y1435100D03*
X0Y1536700D03*
Y1511300D03*
X-50800Y1536700D03*
Y1511300D03*
X0Y1638300D03*
Y1612900D03*
Y1587500D03*
X-50800Y1638300D03*
Y1612900D03*
Y1587500D03*
X0Y1714500D03*
Y1689100D03*
Y1663700D03*
X-50800Y1714500D03*
Y1689100D03*
Y1663700D03*
X0Y1790700D03*
Y1765300D03*
Y1739900D03*
X-50800Y1790700D03*
Y1765300D03*
Y1739900D03*
X0Y1866900D03*
Y1841500D03*
X-50800Y1866900D03*
Y1841500D03*
X0Y1943100D03*
Y1917700D03*
Y1892300D03*
X-50800Y1943100D03*
Y1917700D03*
Y1892300D03*
X0Y2019300D03*
Y1993900D03*
Y1968500D03*
X-50800Y2019300D03*
Y1993900D03*
Y1968500D03*
X0Y2095500D03*
Y2044700D03*
X-50800Y2095500D03*
Y2044700D03*
X0Y2120900D03*
X-50800D03*
X88900Y0D03*
Y25400D03*
X139700Y0D03*
Y25400D03*
X88900Y76200D03*
Y101600D03*
Y127000D03*
X139700Y76200D03*
Y101600D03*
Y127000D03*
X88900Y152400D03*
Y177800D03*
Y203200D03*
X139700Y152400D03*
Y177800D03*
Y203200D03*
X88900Y228600D03*
Y254000D03*
Y279400D03*
X139700Y228600D03*
Y254000D03*
Y279400D03*
X88900Y330200D03*
Y355600D03*
X139700Y330200D03*
Y355600D03*
X88900Y381000D03*
Y406400D03*
Y431800D03*
X139700Y381000D03*
Y406400D03*
Y431800D03*
X88900Y457200D03*
Y482600D03*
Y508000D03*
X139700Y457200D03*
Y482600D03*
Y508000D03*
X88900Y533400D03*
Y584200D03*
X139700Y533400D03*
Y584200D03*
X88900Y609600D03*
Y635000D03*
Y660400D03*
X139700Y609600D03*
Y635000D03*
Y660400D03*
X88900Y685800D03*
Y711200D03*
Y736600D03*
X139700Y685800D03*
Y711200D03*
Y736600D03*
X88900Y762000D03*
X139700D03*
X107950Y1098550D03*
Y1047750D03*
Y1149350D03*
X88900Y1333500D03*
X139700D03*
X88900Y1358900D03*
Y1409700D03*
X139700Y1358900D03*
Y1409700D03*
X88900Y1435100D03*
Y1460500D03*
Y1485900D03*
X139700Y1435100D03*
Y1460500D03*
Y1485900D03*
X88900Y1511300D03*
Y1536700D03*
Y1562100D03*
X139700Y1511300D03*
Y1536700D03*
Y1562100D03*
X88900Y1587500D03*
Y1612900D03*
X139700Y1587500D03*
Y1612900D03*
X88900Y1663700D03*
Y1689100D03*
Y1714500D03*
X139700Y1663700D03*
Y1689100D03*
Y1714500D03*
X88900Y1739900D03*
Y1765300D03*
Y1790700D03*
X139700Y1739900D03*
Y1765300D03*
Y1790700D03*
X88900Y1816100D03*
Y1841500D03*
Y1866900D03*
X139700Y1816100D03*
Y1841500D03*
Y1866900D03*
X88900Y1917700D03*
Y1943100D03*
X139700Y1917700D03*
Y1943100D03*
X88900Y1968500D03*
Y1993900D03*
Y2019300D03*
X139700Y1968500D03*
Y1993900D03*
Y2019300D03*
X88900Y2044700D03*
Y2070100D03*
Y2095500D03*
X139700Y2044700D03*
Y2070100D03*
Y2095500D03*
G54D14*
X-76200Y1282700D03*
Y2171700D03*
X165100Y-50800D03*
Y838200D03*
Y1282700D03*
Y2171700D03*
G54D15*
X6350Y-47620D03*
Y98420D03*
Y298450D03*
X36350Y-47620D03*
Y98420D03*
Y298450D03*
G54D24*
X114300Y883680D03*
Y900680D03*
G54D25*
G01X-53250Y628650D02*
Y608740D01*
X-76200Y585790D01*
Y467280D01*
X-68420Y459500D01*
X-57150D01*
G01X36350Y-47620D02*
Y-60140D01*
X30530Y-65960D01*
X-16590D01*
X-31750Y-50800D01*
G01X-57150D02*
X-31750D01*
G01X6350Y-47620D02*
Y-35100D01*
X-28760Y0D01*
X-64200D01*
G01X-57150Y101600D02*
Y76200D01*
X-64200Y69150D01*
Y50800D01*
G01X-31750Y101600D02*
X-57150D01*
G01X-31750D02*
X-5970D01*
X-2800Y98420D01*
X6350D01*
G01X8100Y152400D02*
X7740Y152760D01*
X-5990D01*
X-9520Y149220D01*
X-31750D01*
G01X-57150D02*
X-31750D01*
G01X38100Y152400D02*
Y165170D01*
X3240Y200020D01*
X-63500D01*
G01X-57150Y301620D02*
Y276220D01*
X-63500Y269880D01*
Y250820D01*
G01X-57150Y301620D02*
X-31750D01*
G01X-57150Y429500D02*
X-21350D01*
X-19050Y431800D01*
X0D01*
G01X-57150Y486650D02*
X-42150D01*
X-12700Y457200D01*
X0D01*
G01X-53250Y571500D02*
Y528070D01*
X-57150Y524170D01*
Y516650D01*
G01X-10250Y571500D02*
Y546820D01*
G01Y628650D02*
Y603980D01*
G01X-39120Y850900D02*
Y825500D01*
G01Y850900D02*
X-12620D01*
G01X-56120Y825500D02*
Y809620D01*
G01X-12620Y965200D02*
X-39120D01*
G01D02*
Y981080D01*
G01X36350Y-47620D02*
Y-23310D01*
X25400Y-12360D01*
Y74960D01*
X36350Y85900D01*
Y98420D01*
G01X88900Y25400D02*
X76200D01*
X69850Y31750D01*
Y44270D01*
X63320Y50800D01*
X50800D01*
G01X88900Y0D02*
X50800D01*
G01X51500Y200020D02*
X53980Y197550D01*
Y190500D01*
X66680Y177800D01*
X88900D01*
G01X36350Y298450D02*
X44450D01*
X51500Y291400D01*
Y250820D01*
G01D02*
X66680D01*
X73020Y244480D01*
Y219080D01*
X88900Y203200D01*
G01X51500Y200020D02*
X38980D01*
X6350Y232660D01*
Y298450D01*
G01X79380Y863600D02*
X107950D01*
X114300Y869950D01*
Y883680D01*
G01X79380Y876300D02*
X104630D01*
X112010Y883680D01*
X114300D01*
G01X79380Y889000D02*
X95250D01*
X98420Y892180D01*
G01X79380Y901700D02*
X95250D01*
X98420Y904880D01*
G01X79380Y914400D02*
X95250D01*
X98420Y917580D01*
G01X79380Y927100D02*
X95250D01*
X98420Y930280D01*
G01X79380Y965200D02*
Y977900D01*
G01X107950Y1226420D02*
X79380D01*
G01Y1256420D02*
Y1266820D01*
X82550Y1270000D01*
G01X88900Y25400D02*
X139700D01*
G01Y0D02*
X88900D01*
G01X139700Y177800D02*
X88900D01*
G01Y203200D02*
X139700D01*
G01Y558800D02*
X88900D01*
G01X139700Y584200D02*
X88900D01*
G01X114300Y883680D02*
X131200D01*
X151520Y904000D01*
Y974720D01*
G01X121520D02*
Y955680D01*
G01X114300Y900680D02*
X129150D01*
G01X107950Y1149350D02*
X151520Y1105780D01*
Y974720D01*
G01X121520D02*
X107950D01*
G01Y1149350D02*
Y1226420D01*
G01X114300Y1333500D02*
Y1320800D01*
X130180Y1304920D01*
Y1236130D01*
X120470Y1226420D01*
X107950D01*
G01Y1256420D02*
Y1270000D01*
G54D16*
X-64200Y25400D03*
Y0D03*
Y50800D03*
X-63500Y200020D03*
Y225420D03*
Y250820D03*
X-57150Y459500D03*
Y429500D03*
Y486650D03*
Y516650D03*
X50800Y25400D03*
Y0D03*
Y50800D03*
X51500Y200020D03*
Y225420D03*
Y250820D03*
X57150Y766050D03*
Y796050D03*
X28580Y766050D03*
Y796050D03*
X79380Y1226420D03*
Y1256420D03*
X107950Y1226420D03*
Y1256420D03*
G54D26*
G01X-12620Y914400D02*
X-73020D01*
X-79380Y908050D01*
Y676280D01*
X-53250Y650150D01*
Y628650D01*
G01X-12620Y901700D02*
X-63500D01*
X-69850Y895350D01*
Y685800D01*
X-31750Y647700D01*
Y609600D01*
X-53250Y588100D01*
Y571500D01*
G01X-12620Y876300D02*
X-39120D01*
G01X-12620Y889000D02*
X-53980D01*
X-56120Y886850D01*
Y876300D01*
G01X-12620Y863600D02*
X-53980D01*
X-56120Y861450D01*
Y850900D01*
G01X-12620Y939800D02*
X-39120D01*
G01X-12620Y927100D02*
X-50800D01*
X-56120Y932420D01*
Y939800D01*
G01X-12620Y952500D02*
X-50800D01*
X-56120Y957820D01*
Y965200D01*
G01X28580Y766050D02*
Y758820D01*
X34920Y752480D01*
X44450D01*
X63500Y733420D01*
Y571500D01*
X76200Y558800D01*
X88900D01*
G01X57150Y766050D02*
Y758150D01*
X59650Y755650D01*
X60320D01*
X73020Y742950D01*
Y600080D01*
X88900Y584200D01*
G01X79380Y952500D02*
X60320D01*
X47620Y939800D01*
Y828680D01*
X28580Y809620D01*
Y796050D01*
G01X79380Y939800D02*
X63500D01*
X57150Y933450D01*
Y796050D01*
G54D17*
X8100Y152400D03*
X38100D03*
X121520Y974720D03*
X151520D03*
G54D18*
X-53250Y571500D03*
X-10250D03*
X-53250Y628650D03*
X-10250D03*
G54D19*
G01X1550Y1022350D02*
X-25400D01*
X-50800Y1047750D01*
G01D02*
X-66680Y1031880D01*
Y1022350D01*
G01X-50800Y1130300D02*
Y1047750D01*
G01Y1130300D02*
Y1216040D01*
X-30170Y1236670D01*
Y1258880D01*
X44450Y1333500D01*
Y2095500D01*
G01X0D02*
X-50800D01*
G01X0D02*
X44450D01*
G01X0Y2120900D02*
X-50800D01*
G01X44450D02*
X0D01*
G01X36550Y1022350D02*
X107950D01*
G01X34200Y1130300D02*
Y1108800D01*
G01Y1130300D02*
Y1154980D01*
G01X44450Y2095500D02*
X88900D01*
G01X44450D02*
Y2120900D01*
G01X88900D02*
X44450D01*
G01X139700Y1333500D02*
X114300D01*
G01D02*
X88900D01*
G01X114300Y1358900D02*
Y1333500D01*
G01Y1358900D02*
X139700D01*
G01X88900D02*
X114300D01*
G01X139700Y1384300D02*
X88900D01*
G01X139700Y2095500D02*
X88900D01*
G01Y2120900D02*
X139700D01*
X-10250Y546820D03*
Y603980D03*
X-56120Y809620D03*
X-39120Y981080D03*
X79380Y977900D03*
X34200Y1108800D03*
Y1154980D03*
X82550Y1270000D03*
X121520Y955680D03*
X129150Y900680D03*
X98420Y892180D03*
Y904880D03*
Y917580D03*
Y930280D03*
X107950Y974720D03*
Y1270000D03*
M02*
